{
.appVersion = "99";
date = "2020-01-13 12:48:27 +0000";
designer = "Dakota Felder";
designerURL = www.dakotafelder.com;
familyName = "Open Gorton";
featurePrefixes = (
{
automatic = 1;
code = "languagesystem DFLT dflt;\012";
name = Languagesystems;
}
);
fontMaster = (
{
ascender = 800;
capHeight = 700;
descender = -200;
id = "15BDFF71-2BAF-4479-A38F-4FA7A571BE82";
userData = {
GSCornerRadius = 7;
GSOffsetHorizontal = 10;
GSOffsetVertical = 10;
};
weightValue = 0;
widthValue = 0;
xHeight = 500;
}
);
glyphs = (
{
glyphname = A;
lastChange = "2020-01-20 11:40:00 +0000";
layers = (
{
backgroundImage = {
crop = "{{0, 0}, {95, 127}}";
imagePath = images/A.jpg;
locked = "1";
transform = "{8.45473, 0, 0, 8.45473, 10, -206}";
};
layerId = "15BDFF71-2BAF-4479-A38F-4FA7A571BE82";
paths = (
{
closed = 1;
nodes = (
"142 -39 OFFCURVE",
"181 -23 OFFCURVE",
"195 11 CURVE SMOOTH",
"263 168 LINE SMOOTH",
"264 171 OFFCURVE",
"268 173 OFFCURVE",
"271 173 CURVE SMOOTH",
"541 173 LINE SMOOTH",
"544 173 OFFCURVE",
"548 171 OFFCURVE",
"549 168 CURVE SMOOTH",
"617 11 LINE SMOOTH",
"631 -23 OFFCURVE",
"670 -39 OFFCURVE",
"703 -24 CURVE SMOOTH",
"736 -10 OFFCURVE",
"751 29 OFFCURVE",
"737 63 CURVE SMOOTH",
"466 700 LINE SMOOTH",
"457 723 OFFCURVE",
"432 739 OFFCURVE",
"406 739 CURVE SMOOTH",
"380 739 OFFCURVE",
"355 723 OFFCURVE",
"346 700 CURVE SMOOTH",
"75 63 LINE SMOOTH",
"61 29 OFFCURVE",
"76 -10 OFFCURVE",
"109 -24 CURVE SMOOTH"
);
},
{
closed = 1;
nodes = (
"315 250 LINE SMOOTH",
"306 250 OFFCURVE",
"301 258 OFFCURVE",
"304 266 CURVE SMOOTH",
"393 484 LINE SMOOTH",
"398 497 OFFCURVE",
"414 497 OFFCURVE",
"419 484 CURVE SMOOTH",
"508 266 LINE SMOOTH",
"511 258 OFFCURVE",
"507 250 OFFCURVE",
"498 250 CURVE SMOOTH"
);
}
);
width = 812;
}
);
leftMetricsKey = "=H";
rightMetricsKey = "=H";
unicode = 0041;
},
{
glyphname = B;
lastChange = "2020-01-20 11:40:00 +0000";
layers = (
{
backgroundImage = {
crop = "{{0, 0}, {79, 118}}";
imagePath = images/B.jpg;
locked = "1";
transform = "{8.593, 0, 0, 8.593, -20, -166}";
};
layerId = "15BDFF71-2BAF-4479-A38F-4FA7A571BE82";
paths = (
{
closed = 1;
nodes = (
"70 1 OFFCURVE",
"101 -30 OFFCURVE",
"136 -30 CURVE SMOOTH",
"361 -30 LINE SMOOTH",
"491 -30 OFFCURVE",
"597 77 OFFCURVE",
"597 207 CURVE SMOOTH",
"597 281 OFFCURVE",
"561 350 OFFCURVE",
"504 395 CURVE SMOOTH",
"498 399 OFFCURVE",
"498 406 OFFCURVE",
"502 411 CURVE SMOOTH",
"534 446 OFFCURVE",
"553 492 OFFCURVE",
"553 541 CURVE SMOOTH",
"553 647 OFFCURVE",
"467 734 OFFCURVE",
"361 734 CURVE SMOOTH",
"136 734 LINE SMOOTH",
"100 734 OFFCURVE",
"70 705 OFFCURVE",
"70 669 CURVE SMOOTH",
"70 36 LINE SMOOTH"
);
},
{
closed = 1;
nodes = (
"201 310 LINE SMOOTH",
"201 316 OFFCURVE",
"205 320 OFFCURVE",
"211 320 CURVE SMOOTH",
"354 320 LINE SMOOTH",
"413 320 OFFCURVE",
"461 272 OFFCURVE",
"461 212 CURVE SMOOTH",
"461 152 OFFCURVE",
"413 104 OFFCURVE",
"354 104 CURVE SMOOTH",
"211 104 LINE SMOOTH",
"205 104 OFFCURVE",
"201 108 OFFCURVE",
"201 114 CURVE SMOOTH"
);
},
{
closed = 1;
nodes = (
"201 594 LINE SMOOTH",
"201 600 OFFCURVE",
"205 604 OFFCURVE",
"211 604 CURVE SMOOTH",
"354 604 LINE SMOOTH",
"396 604 OFFCURVE",
"429 570 OFFCURVE",
"429 528 CURVE SMOOTH",
"429 486 OFFCURVE",
"396 452 OFFCURVE",
"354 452 CURVE SMOOTH",
"211 452 LINE SMOOTH",
"205 452 OFFCURVE",
"201 456 OFFCURVE",
"201 462 CURVE SMOOTH"
);
}
);
width = 667;
}
);
leftMetricsKey = "=H";
rightMetricsKey = "=H";
unicode = 0042;
},
{
glyphname = C;
lastChange = "2020-01-20 11:40:00 +0000";
layers = (
{
backgroundImage = {
crop = "{{0, 0}, {84, 94}}";
imagePath = images/C.jpg;
transform = "{8.39915, 0, 0, 8.39915, 29, -62}";
};
layerId = "15BDFF71-2BAF-4479-A38F-4FA7A571BE82";
paths = (
{
closed = 1;
nodes = (
"535 -30 OFFCURVE",
"622 4 OFFCURVE",
"692 68 CURVE SMOOTH",
"728 101 OFFCURVE",
"731 153 OFFCURVE",
"697 174 CURVE",
"670 194 OFFCURVE",
"632 190 OFFCURVE",
"607 164 CURVE",
"562 122 OFFCURVE",
"503 99 OFFCURVE",
"441 99 CURVE SMOOTH",
"305 99 OFFCURVE",
"199 205 OFFCURVE",
"199 341 CURVE SMOOTH",
"199 476 OFFCURVE",
"306 583 OFFCURVE",
"441 583 CURVE SMOOTH",
"498 583 OFFCURVE",
"554 562 OFFCURVE",
"598 523 CURVE",
"626 502 OFFCURVE",
"662 499 OFFCURVE",
"688 517 CURVE",
"690 518 LINE",
"724 543 OFFCURVE",
"717 594 OFFCURVE",
"676 628 CURVE SMOOTH",
"612 682 OFFCURVE",
"528 712 OFFCURVE",
"441 712 CURVE SMOOTH",
"237 712 OFFCURVE",
"70 545 OFFCURVE",
"70 341 CURVE SMOOTH",
"70 137 OFFCURVE",
"237 -30 OFFCURVE",
"441 -30 CURVE SMOOTH"
);
}
);
width = 791;
}
);
leftMetricsKey = "=H";
rightMetricsKey = "=H";
unicode = 0043;
},
{
glyphname = D;
lastChange = "2020-01-20 11:40:00 +0000";
layers = (
{
backgroundImage = {
crop = "{{0, 0}, {89, 103}}";
imagePath = images/D.jpg;
locked = "1";
transform = "{8.5534, 0, 0, 8.5534, -3, -85}";
};
layerId = "15BDFF71-2BAF-4479-A38F-4FA7A571BE82";
paths = (
{
closed = 1;
nodes = (
"70 1 OFFCURVE",
"101 -30 OFFCURVE",
"136 -30 CURVE SMOOTH",
"407 -30 LINE",
"574 -24 OFFCURVE",
"708 146 OFFCURVE",
"708 352 CURVE SMOOTH",
"708 558 OFFCURVE",
"574 728 OFFCURVE",
"407 734 CURVE",
"136 734 LINE SMOOTH",
"100 734 OFFCURVE",
"70 705 OFFCURVE",
"70 669 CURVE SMOOTH",
"70 36 LINE SMOOTH"
);
},
{
closed = 1;
nodes = (
"201 591 LINE SMOOTH",
"201 597 OFFCURVE",
"205 601 OFFCURVE",
"211 601 CURVE SMOOTH",
"393 601 LINE",
"495 596 OFFCURVE",
"579 484 OFFCURVE",
"579 351 CURVE SMOOTH",
"579 217 OFFCURVE",
"495 105 OFFCURVE",
"393 100 CURVE",
"211 100 LINE SMOOTH",
"205 100 OFFCURVE",
"201 104 OFFCURVE",
"201 110 CURVE SMOOTH"
);
}
);
width = 778;
}
);
leftMetricsKey = "=H";
rightMetricsKey = "=H";
unicode = 0044;
},
{
glyphname = E;
lastChange = "2020-01-20 11:40:00 +0000";
layers = (
{
backgroundImage = {
crop = "{{0, 0}, {91, 104}}";
imagePath = images/E.jpg;
locked = "1";
transform = "{8.49965, 0.07668, -0.07668, 8.49965, -43, -72}";
};
layerId = "15BDFF71-2BAF-4479-A38F-4FA7A571BE82";
paths = (
{
closed = 1;
nodes = (
"70 0 OFFCURVE",
"98 -29 OFFCURVE",
"135 -30 CURVE SMOOTH",
"514 -30 LINE SMOOTH",
"550 -30 OFFCURVE",
"579 0 OFFCURVE",
"579 36 CURVE SMOOTH",
"579 70 OFFCURVE",
"548 101 OFFCURVE",
"514 101 CURVE SMOOTH",
"211 101 LINE SMOOTH",
"205 101 OFFCURVE",
"201 105 OFFCURVE",
"201 111 CURVE SMOOTH",
"201 299 LINE SMOOTH",
"201 305 OFFCURVE",
"205 309 OFFCURVE",
"211 309 CURVE SMOOTH",
"399 309 LINE SMOOTH",
"435 309 OFFCURVE",
"464 339 OFFCURVE",
"464 375 CURVE SMOOTH",
"464 409 OFFCURVE",
"433 440 OFFCURVE",
"399 440 CURVE SMOOTH",
"211 440 LINE SMOOTH",
"205 440 OFFCURVE",
"201 444 OFFCURVE",
"201 450 CURVE SMOOTH",
"201 593 LINE SMOOTH",
"201 599 OFFCURVE",
"205 603 OFFCURVE",
"211 603 CURVE SMOOTH",
"499 603 LINE SMOOTH",
"535 603 OFFCURVE",
"564 633 OFFCURVE",
"564 669 CURVE SMOOTH",
"564 703 OFFCURVE",
"533 734 OFFCURVE",
"499 734 CURVE SMOOTH",
"135 734 LINE SMOOTH",
"98 733 OFFCURVE",
"70 704 OFFCURVE",
"70 669 CURVE SMOOTH",
"70 36 LINE SMOOTH"
);
}
);
width = 649;
}
);
leftMetricsKey = "=H";
rightMetricsKey = "=H";
unicode = 0045;
},
{
glyphname = F;
lastChange = "2020-01-20 11:40:00 +0000";
layers = (
{
backgroundImage = {
crop = "{{0, 0}, {72, 101}}";
imagePath = images/F.jpg;
locked = "1";
transform = "{8.70613, 0, 0, 8.70613, -4, -77}";
};
layerId = "15BDFF71-2BAF-4479-A38F-4FA7A571BE82";
paths = (
{
closed = 1;
nodes = (
"70 1 OFFCURVE",
"101 -30 OFFCURVE",
"136 -30 CURVE SMOOTH",
"172 -30 OFFCURVE",
"201 0 OFFCURVE",
"201 36 CURVE SMOOTH",
"201 299 LINE SMOOTH",
"201 305 OFFCURVE",
"205 309 OFFCURVE",
"211 309 CURVE SMOOTH",
"399 309 LINE SMOOTH",
"435 309 OFFCURVE",
"464 339 OFFCURVE",
"464 375 CURVE SMOOTH",
"464 409 OFFCURVE",
"433 440 OFFCURVE",
"399 440 CURVE SMOOTH",
"211 440 LINE SMOOTH",
"205 440 OFFCURVE",
"201 444 OFFCURVE",
"201 450 CURVE SMOOTH",
"201 593 LINE SMOOTH",
"201 599 OFFCURVE",
"205 603 OFFCURVE",
"211 603 CURVE SMOOTH",
"499 603 LINE SMOOTH",
"535 603 OFFCURVE",
"564 633 OFFCURVE",
"564 669 CURVE SMOOTH",
"564 703 OFFCURVE",
"533 734 OFFCURVE",
"499 734 CURVE SMOOTH",
"135 734 LINE SMOOTH",
"98 733 OFFCURVE",
"70 704 OFFCURVE",
"70 669 CURVE SMOOTH",
"70 36 LINE SMOOTH"
);
}
);
width = 634;
}
);
leftMetricsKey = "=H";
rightMetricsKey = "=H";
unicode = 0046;
},
{
glyphname = G;
lastChange = "2020-01-20 11:40:00 +0000";
layers = (
{
backgroundImage = {
crop = "{{0, 0}, {97, 105}}";
imagePath = images/G.jpg;
locked = "1";
transform = "{8.776, 0, 0, 8.776, -7, -114}";
};
layerId = "15BDFF71-2BAF-4479-A38F-4FA7A571BE82";
paths = (
{
closed = 1;
nodes = (
"70 137 OFFCURVE",
"237 -30 OFFCURVE",
"441 -30 CURVE SMOOTH",
"531 -30 OFFCURVE",
"618 3 OFFCURVE",
"691 65 CURVE",
"730 101 OFFCURVE",
"740 118 OFFCURVE",
"740 152 CURVE SMOOTH",
"746 344 LINE SMOOTH",
"747 379 OFFCURVE",
"717 409 OFFCURVE",
"681 409 CURVE SMOOTH",
"534 409 LINE SMOOTH",
"497 408 OFFCURVE",
"469 379 OFFCURVE",
"469 344 CURVE SMOOTH",
"469 308 OFFCURVE",
"497 279 OFFCURVE",
"534 278 CURVE SMOOTH",
"603 278 LINE SMOOTH",
"609 278 OFFCURVE",
"614 273 OFFCURVE",
"614 267 CURVE SMOOTH",
"613 240 OFFCURVE",
"613 219 OFFCURVE",
"614 204 CURVE",
"614 167 OFFCURVE",
"615 171 OFFCURVE",
"610 167 CURVE SMOOTH",
"549 120 OFFCURVE",
"496 99 OFFCURVE",
"441 99 CURVE SMOOTH",
"305 99 OFFCURVE",
"199 205 OFFCURVE",
"199 341 CURVE SMOOTH",
"199 476 OFFCURVE",
"306 583 OFFCURVE",
"441 583 CURVE SMOOTH",
"499 583 OFFCURVE",
"555 562 OFFCURVE",
"598 523 CURVE",
"626 501 OFFCURVE",
"659 500 OFFCURVE",
"688 519 CURVE SMOOTH",
"723 543 OFFCURVE",
"718 596 OFFCURVE",
"676 628 CURVE",
"612 682 OFFCURVE",
"528 712 OFFCURVE",
"441 712 CURVE SMOOTH",
"237 712 OFFCURVE",
"70 545 OFFCURVE",
"70 341 CURVE SMOOTH"
);
}
);
width = 816;
}
);
leftMetricsKey = "=H";
rightMetricsKey = "=H";
unicode = 0047;
},
{
glyphname = H;
lastChange = "2020-01-20 11:39:56 +0000";
layers = (
{
backgroundImage = {
crop = "{{0, 0}, {70, 88}}";
imagePath = images/H.jpg;
locked = "1";
transform = "{8.75125, 0, 0, 8.75125, 67, -26}";
};
layerId = "15BDFF71-2BAF-4479-A38F-4FA7A571BE82";
paths = (
{
closed = 1;
nodes = (
"70 1 OFFCURVE",
"101 -30 OFFCURVE",
"136 -30 CURVE SMOOTH",
"172 -30 OFFCURVE",
"201 0 OFFCURVE",
"201 36 CURVE SMOOTH",
"201 318 LINE SMOOTH",
"201 324 OFFCURVE",
"205 328 OFFCURVE",
"211 328 CURVE SMOOTH",
"540 328 LINE SMOOTH",
"546 328 OFFCURVE",
"550 324 OFFCURVE",
"550 318 CURVE SMOOTH",
"550 36 LINE SMOOTH",
"550 1 OFFCURVE",
"581 -30 OFFCURVE",
"616 -30 CURVE SMOOTH",
"652 -30 OFFCURVE",
"681 0 OFFCURVE",
"681 36 CURVE SMOOTH",
"681 669 LINE SMOOTH",
"681 703 OFFCURVE",
"650 734 OFFCURVE",
"616 734 CURVE SMOOTH",
"580 734 OFFCURVE",
"550 705 OFFCURVE",
"550 669 CURVE SMOOTH",
"550 469 LINE SMOOTH",
"550 463 OFFCURVE",
"546 459 OFFCURVE",
"540 459 CURVE SMOOTH",
"211 459 LINE SMOOTH",
"205 459 OFFCURVE",
"201 463 OFFCURVE",
"201 469 CURVE SMOOTH",
"201 669 LINE SMOOTH",
"201 703 OFFCURVE",
"170 734 OFFCURVE",
"136 734 CURVE SMOOTH",
"100 734 OFFCURVE",
"70 705 OFFCURVE",
"70 669 CURVE SMOOTH",
"70 36 LINE SMOOTH"
);
}
);
width = 751;
}
);
unicode = 0048;
},
{
glyphname = I;
lastChange = "2020-01-20 11:40:00 +0000";
layers = (
{
backgroundImage = {
crop = "{{0, 0}, {37, 107}}";
imagePath = images/I.jpg;
locked = "1";
transform = "{8.83, 0, 0, 8.83, 6, -79}";
};
layerId = "15BDFF71-2BAF-4479-A38F-4FA7A571BE82";
paths = (
{
closed = 1;
nodes = (
"201 36 LINE",
"201 669 LINE",
"70 669 LINE",
"70 36 LINE"
);
},
{
closed = 1;
nodes = (
"172 -30 OFFCURVE",
"201 0 OFFCURVE",
"201 36 CURVE SMOOTH",
"201 70 OFFCURVE",
"170 101 OFFCURVE",
"136 101 CURVE SMOOTH",
"100 101 OFFCURVE",
"70 72 OFFCURVE",
"70 36 CURVE SMOOTH",
"70 1 OFFCURVE",
"101 -30 OFFCURVE",
"136 -30 CURVE SMOOTH"
);
},
{
closed = 1;
nodes = (
"172 603 OFFCURVE",
"201 633 OFFCURVE",
"201 669 CURVE SMOOTH",
"201 703 OFFCURVE",
"170 734 OFFCURVE",
"136 734 CURVE SMOOTH",
"100 734 OFFCURVE",
"70 705 OFFCURVE",
"70 669 CURVE SMOOTH",
"70 634 OFFCURVE",
"101 603 OFFCURVE",
"136 603 CURVE SMOOTH"
);
}
);
width = 271;
}
);
leftMetricsKey = "=H";
rightMetricsKey = "=H";
unicode = 0049;
},
{
glyphname = J;
lastChange = "2020-01-20 11:40:00 +0000";
layers = (
{
backgroundImage = {
crop = "{{0, 0}, {104, 132}}";
imagePath = images/J.jpg;
locked = "1";
transform = "{9.33384, 0, 0, 9.33384, -106, -236}";
};
layerId = "15BDFF71-2BAF-4479-A38F-4FA7A571BE82";
paths = (
{
closed = 1;
nodes = (
"511 -67 OFFCURVE",
"649 71 OFFCURVE",
"649 238 CURVE SMOOTH",
"649 670 LINE",
"518 670 LINE",
"518 238 LINE SMOOTH",
"518 141 OFFCURVE",
"441 64 OFFCURVE",
"344 64 CURVE SMOOTH",
"284 64 OFFCURVE",
"229 94 OFFCURVE",
"196 144 CURVE",
"174 181 OFFCURVE",
"139 196 OFFCURVE",
"107 180 CURVE SMOOTH",
"71 163 OFFCURVE",
"60 118 OFFCURVE",
"80 81 CURVE",
"137 -11 OFFCURVE",
"237 -67 OFFCURVE",
"344 -67 CURVE SMOOTH"
);
},
{
closed = 1;
nodes = (
"620 603 OFFCURVE",
"649 633 OFFCURVE",
"649 669 CURVE SMOOTH",
"649 703 OFFCURVE",
"618 734 OFFCURVE",
"584 734 CURVE SMOOTH",
"548 734 OFFCURVE",
"518 705 OFFCURVE",
"518 669 CURVE SMOOTH",
"518 634 OFFCURVE",
"549 603 OFFCURVE",
"584 603 CURVE SMOOTH"
);
}
);
width = 719;
}
);
leftMetricsKey = "=H";
rightMetricsKey = "=H";
unicode = 004A;
},
{
glyphname = K;
lastChange = "2020-01-20 11:40:00 +0000";
layers = (
{
backgroundImage = {
crop = "{{0, 0}, {93, 121}}";
imagePath = images/K.jpg;
locked = "1";
transform = "{8.65904, 0, 0, 8.65904, -3, -166}";
};
layerId = "15BDFF71-2BAF-4479-A38F-4FA7A571BE82";
paths = (
{
closed = 1;
nodes = (
"172 -30 OFFCURVE",
"201 0 OFFCURVE",
"201 36 CURVE SMOOTH",
"201 220 LINE SMOOTH",
"201 222 OFFCURVE",
"202 226 OFFCURVE",
"204 227 CURVE SMOOTH",
"313 316 LINE SMOOTH",
"317 320 OFFCURVE",
"324 319 OFFCURVE",
"327 315 CURVE SMOOTH",
"605 -8 LINE",
"630 -34 OFFCURVE",
"668 -36 OFFCURVE",
"695 -13 CURVE SMOOTH",
"722 11 OFFCURVE",
"725 50 OFFCURVE",
"703 78 CURVE",
"430 398 LINE SMOOTH",
"426 402 OFFCURVE",
"427 409 OFFCURVE",
"431 413 CURVE SMOOTH",
"671 616 LINE SMOOTH",
"696 637 OFFCURVE",
"713 673 OFFCURVE",
"679 711 CURVE SMOOTH",
"654 738 OFFCURVE",
"615 741 OFFCURVE",
"588 719 CURVE SMOOTH",
"224 403 LINE SMOOTH",
"214 395 OFFCURVE",
"201 400 OFFCURVE",
"201 413 CURVE SMOOTH",
"201 669 LINE SMOOTH",
"201 703 OFFCURVE",
"170 734 OFFCURVE",
"136 734 CURVE SMOOTH",
"100 734 OFFCURVE",
"70 705 OFFCURVE",
"70 669 CURVE SMOOTH",
"70 36 LINE SMOOTH",
"70 1 OFFCURVE",
"101 -30 OFFCURVE",
"136 -30 CURVE SMOOTH"
);
}
);
width = 788;
}
);
leftMetricsKey = "=H";
rightMetricsKey = "=H";
unicode = 004B;
},
{
glyphname = L;
lastChange = "2020-01-20 11:40:00 +0000";
layers = (
{
backgroundImage = {
crop = "{{0, 0}, {81, 115}}";
imagePath = images/L.jpg;
locked = "1";
transform = "{8.68277, 0, 0, 8.68277, -21, -155}";
};
layerId = "15BDFF71-2BAF-4479-A38F-4FA7A571BE82";
paths = (
{
closed = 1;
nodes = (
"70 0 OFFCURVE",
"98 -29 OFFCURVE",
"135 -30 CURVE SMOOTH",
"504 -30 LINE SMOOTH",
"540 -30 OFFCURVE",
"569 0 OFFCURVE",
"569 36 CURVE SMOOTH",
"569 70 OFFCURVE",
"538 101 OFFCURVE",
"504 101 CURVE SMOOTH",
"211 101 LINE SMOOTH",
"205 101 OFFCURVE",
"201 105 OFFCURVE",
"201 111 CURVE SMOOTH",
"201 669 LINE SMOOTH",
"201 703 OFFCURVE",
"170 734 OFFCURVE",
"136 734 CURVE SMOOTH",
"100 734 OFFCURVE",
"70 705 OFFCURVE",
"70 669 CURVE SMOOTH",
"70 36 LINE SMOOTH"
);
}
);
width = 639;
}
);
leftMetricsKey = "=H";
rightMetricsKey = "=H";
unicode = 004C;
},
{
glyphname = M;
lastChange = "2020-01-20 11:40:00 +0000";
layers = (
{
backgroundImage = {
crop = "{{0, 0}, {107, 112}}";
imagePath = images/M.jpg;
locked = "1";
transform = "{8.5616, 0, 0, 8.5616, -18, -130}";
};
layerId = "15BDFF71-2BAF-4479-A38F-4FA7A571BE82";
paths = (
{
closed = 1;
nodes = (
"70 1 OFFCURVE",
"101 -30 OFFCURVE",
"136 -30 CURVE SMOOTH",
"172 -30 OFFCURVE",
"201 0 OFFCURVE",
"201 36 CURVE SMOOTH",
"201 328 LINE SMOOTH",
"201 346 OFFCURVE",
"228 353 OFFCURVE",
"236 337 CURVE SMOOTH",
"372 77 LINE SMOOTH",
"399 28 OFFCURVE",
"472 28 OFFCURVE",
"499 77 CURVE SMOOTH",
"635 336 LINE SMOOTH",
"643 352 OFFCURVE",
"670 346 OFFCURVE",
"670 328 CURVE SMOOTH",
"670 36 LINE SMOOTH",
"670 1 OFFCURVE",
"701 -30 OFFCURVE",
"736 -30 CURVE SMOOTH",
"772 -30 OFFCURVE",
"801 0 OFFCURVE",
"801 36 CURVE SMOOTH",
"801 675 LINE",
"799 708 OFFCURVE",
"781 723 OFFCURVE",
"749 734 CURVE SMOOTH",
"729 741 OFFCURVE",
"700 735 OFFCURVE",
"690 716 CURVE SMOOTH",
"609 563 OFFCURVE",
"529 412 OFFCURVE",
"448 260 CURVE SMOOTH",
"443 250 OFFCURVE",
"429 250 OFFCURVE",
"424 260 CURVE SMOOTH",
"194 700 LINE SMOOTH",
"183 720 OFFCURVE",
"159 734 OFFCURVE",
"136 734 CURVE SMOOTH",
"102 734 OFFCURVE",
"72 708 OFFCURVE",
"70 675 CURVE",
"70 36 LINE SMOOTH"
);
}
);
width = 871;
}
);
leftMetricsKey = "=H";
rightMetricsKey = "=H";
unicode = 004D;
},
{
glyphname = N;
lastChange = "2020-01-20 11:40:00 +0000";
layers = (
{
backgroundImage = {
crop = "{{0, 0}, {89, 118}}";
imagePath = images/N.jpg;
locked = "1";
transform = "{8.65351, 0, 0, 8.65351, -30, -165}";
};
layerId = "15BDFF71-2BAF-4479-A38F-4FA7A571BE82";
paths = (
{
closed = 1;
nodes = (
"70 1 OFFCURVE",
"101 -30 OFFCURVE",
"136 -30 CURVE SMOOTH",
"172 -30 OFFCURVE",
"201 0 OFFCURVE",
"201 36 CURVE SMOOTH",
"201 416 LINE SMOOTH",
"201 432 OFFCURVE",
"221 438 OFFCURVE",
"231 425 CURVE SMOOTH",
"335 278 OFFCURVE",
"438 128 OFFCURVE",
"542 -17 CURVE SMOOTH",
"550 -28 OFFCURVE",
"567 -30 OFFCURVE",
"583 -30 CURVE SMOOTH",
"619 -30 OFFCURVE",
"648 0 OFFCURVE",
"648 36 CURVE SMOOTH",
"648 669 LINE SMOOTH",
"648 703 OFFCURVE",
"617 734 OFFCURVE",
"583 734 CURVE SMOOTH",
"547 734 OFFCURVE",
"517 705 OFFCURVE",
"517 669 CURVE SMOOTH",
"517 294 LINE SMOOTH",
"517 278 OFFCURVE",
"497 272 OFFCURVE",
"487 285 CURVE SMOOTH",
"187 710 LINE",
"175 725 OFFCURVE",
"156 734 OFFCURVE",
"136 734 CURVE SMOOTH",
"100 734 OFFCURVE",
"70 705 OFFCURVE",
"70 669 CURVE SMOOTH",
"70 36 LINE SMOOTH"
);
}
);
width = 718;
}
);
leftMetricsKey = "=H";
rightMetricsKey = "=H";
unicode = 004E;
},
{
glyphname = O;
lastChange = "2020-01-20 11:40:00 +0000";
layers = (
{
backgroundImage = {
crop = "{{0, 0}, {97, 97}}";
imagePath = images/O.jpg;
locked = "1";
transform = "{8.651, 0, 0, 8.651, 28, -64}";
};
layerId = "15BDFF71-2BAF-4479-A38F-4FA7A571BE82";
paths = (
{
closed = 1;
nodes = (
"645 -30 OFFCURVE",
"812 137 OFFCURVE",
"812 341 CURVE SMOOTH",
"812 545 OFFCURVE",
"645 712 OFFCURVE",
"441 712 CURVE SMOOTH",
"237 712 OFFCURVE",
"70 545 OFFCURVE",
"70 341 CURVE SMOOTH",
"70 137 OFFCURVE",
"237 -30 OFFCURVE",
"441 -30 CURVE SMOOTH"
);
},
{
closed = 1;
nodes = (
"305 99 OFFCURVE",
"199 205 OFFCURVE",
"199 341 CURVE SMOOTH",
"199 476 OFFCURVE",
"306 583 OFFCURVE",
"441 583 CURVE SMOOTH",
"576 583 OFFCURVE",
"683 476 OFFCURVE",
"683 341 CURVE SMOOTH",
"683 206 OFFCURVE",
"576 99 OFFCURVE",
"441 99 CURVE SMOOTH"
);
}
);
width = 882;
}
);
leftMetricsKey = "=H";
rightMetricsKey = "=H";
unicode = 004F;
},
{
glyphname = P;
lastChange = "2020-01-20 11:40:00 +0000";
layers = (
{
backgroundImage = {
crop = "{{0, 0}, {67, 109}}";
imagePath = images/P.jpg;
locked = "1";
transform = "{8.801, 0, 0, 8.801, 41, -163}";
};
layerId = "15BDFF71-2BAF-4479-A38F-4FA7A571BE82";
paths = (
{
closed = 1;
nodes = (
"70 1 OFFCURVE",
"101 -30 OFFCURVE",
"136 -30 CURVE SMOOTH",
"172 -30 OFFCURVE",
"201 0 OFFCURVE",
"201 36 CURVE SMOOTH",
"201 247 LINE SMOOTH",
"201 253 OFFCURVE",
"205 257 OFFCURVE",
"211 257 CURVE SMOOTH",
"350 257 LINE SMOOTH",
"480 257 OFFCURVE",
"588 365 OFFCURVE",
"588 495 CURVE SMOOTH",
"588 627 OFFCURVE",
"481 734 OFFCURVE",
"350 734 CURVE SMOOTH",
"136 734 LINE SMOOTH",
"100 734 OFFCURVE",
"70 705 OFFCURVE",
"70 669 CURVE SMOOTH",
"70 36 LINE SMOOTH"
);
},
{
closed = 1;
nodes = (
"201 594 LINE SMOOTH",
"201 600 OFFCURVE",
"205 604 OFFCURVE",
"211 604 CURVE SMOOTH",
"348 604 LINE SMOOTH",
"410 604 OFFCURVE",
"458 555 OFFCURVE",
"458 493 CURVE SMOOTH",
"458 431 OFFCURVE",
"410 382 OFFCURVE",
"348 382 CURVE SMOOTH",
"211 382 LINE SMOOTH",
"205 382 OFFCURVE",
"201 386 OFFCURVE",
"201 392 CURVE SMOOTH"
);
}
);
width = 658;
}
);
leftMetricsKey = "=H";
rightMetricsKey = "=H";
unicode = 0050;
},
{
glyphname = Q;
lastChange = "2020-01-20 11:40:00 +0000";
layers = (
{
backgroundImage = {
crop = "{{0, 0}, {102, 99}}";
imagePath = images/Q.jpg;
locked = "1";
transform = "{8.75619, 0, 0, 8.75619, -20, -67}";
};
layerId = "15BDFF71-2BAF-4479-A38F-4FA7A571BE82";
paths = (
{
closed = 1;
nodes = (
"70 168 OFFCURVE",
"237 1 OFFCURVE",
"441 1 CURVE SMOOTH",
"495 1 OFFCURVE",
"548 13 OFFCURVE",
"600 36 CURVE SMOOTH",
"604 38 OFFCURVE",
"609 36 OFFCURVE",
"612 32 CURVE SMOOTH",
"638 0 OFFCURVE",
"682 -1 OFFCURVE",
"710 26 CURVE",
"733 47 OFFCURVE",
"739 82 OFFCURVE",
"717 113 CURVE SMOOTH",
"714 118 OFFCURVE",
"714 122 OFFCURVE",
"718 126 CURVE SMOOTH",
"778 193 OFFCURVE",
"812 281 OFFCURVE",
"812 372 CURVE SMOOTH",
"812 576 OFFCURVE",
"645 743 OFFCURVE",
"441 743 CURVE SMOOTH",
"237 743 OFFCURVE",
"70 576 OFFCURVE",
"70 372 CURVE SMOOTH"
);
},
{
closed = 1;
nodes = (
"199 507 OFFCURVE",
"306 614 OFFCURVE",
"441 614 CURVE SMOOTH",
"576 614 OFFCURVE",
"683 507 OFFCURVE",
"683 372 CURVE SMOOTH",
"683 317 OFFCURVE",
"665 265 OFFCURVE",
"632 223 CURVE SMOOTH",
"628 218 OFFCURVE",
"620 218 OFFCURVE",
"616 223 CURVE SMOOTH",
"608 232 LINE SMOOTH",
"585 257 OFFCURVE",
"544 260 OFFCURVE",
"518 238 CURVE SMOOTH",
"493 216 OFFCURVE",
"488 182 OFFCURVE",
"503 156 CURVE SMOOTH",
"508 148 OFFCURVE",
"506 139 OFFCURVE",
"497 137 CURVE SMOOTH",
"478 132 OFFCURVE",
"459 130 OFFCURVE",
"441 130 CURVE SMOOTH",
"305 130 OFFCURVE",
"199 236 OFFCURVE",
"199 372 CURVE SMOOTH"
);
}
);
width = 882;
}
);
leftMetricsKey = "=H";
rightMetricsKey = "=H";
unicode = 0051;
},
{
glyphname = R;
lastChange = "2020-01-20 11:40:00 +0000";
layers = (
{
backgroundImage = {
crop = "{{0, 0}, {86, 111}}";
imagePath = images/R.jpg;
locked = "1";
transform = "{8.51826, 0, 0, 8.51826, -37, -131}";
};
layerId = "15BDFF71-2BAF-4479-A38F-4FA7A571BE82";
paths = (
{
closed = 1;
nodes = (
"70 1 OFFCURVE",
"101 -30 OFFCURVE",
"136 -30 CURVE SMOOTH",
"172 -30 OFFCURVE",
"201 0 OFFCURVE",
"201 36 CURVE SMOOTH",
"201 250 LINE SMOOTH",
"201 256 OFFCURVE",
"205 260 OFFCURVE",
"211 260 CURVE SMOOTH",
"361 260 LINE SMOOTH",
"364 260 OFFCURVE",
"368 258 OFFCURVE",
"369 255 CURVE SMOOTH",
"414 165 OFFCURVE",
"457 76 OFFCURVE",
"504 -14 CURVE SMOOTH",
"515 -35 OFFCURVE",
"556 -41 OFFCURVE",
"582 -27 CURVE SMOOTH",
"613 -11 OFFCURVE",
"627 29 OFFCURVE",
"611 60 CURVE SMOOTH",
"496 297 LINE SMOOTH",
"494 302 OFFCURVE",
"495 306 OFFCURVE",
"499 309 CURVE SMOOTH",
"554 354 OFFCURVE",
"588 424 OFFCURVE",
"588 495 CURVE SMOOTH",
"588 627 OFFCURVE",
"481 734 OFFCURVE",
"350 734 CURVE SMOOTH",
"136 734 LINE SMOOTH",
"100 734 OFFCURVE",
"70 705 OFFCURVE",
"70 669 CURVE SMOOTH",
"70 36 LINE SMOOTH"
);
},
{
closed = 1;
nodes = (
"201 594 LINE SMOOTH",
"201 600 OFFCURVE",
"205 604 OFFCURVE",
"211 604 CURVE SMOOTH",
"348 604 LINE SMOOTH",
"410 604 OFFCURVE",
"458 555 OFFCURVE",
"458 493 CURVE SMOOTH",
"458 431 OFFCURVE",
"410 382 OFFCURVE",
"348 382 CURVE SMOOTH",
"211 382 LINE SMOOTH",
"205 382 OFFCURVE",
"201 386 OFFCURVE",
"201 392 CURVE SMOOTH"
);
}
);
width = 688;
}
);
leftMetricsKey = "=H";
rightMetricsKey = "=H";
unicode = 0052;
},
{
glyphname = S;
lastChange = "2020-01-20 11:40:00 +0000";
layers = (
{
backgroundImage = {
crop = "{{0, 0}, {85, 117}}";
imagePath = images/S.jpg;
locked = "1";
transform = "{8.921, 0, 0, 8.921, -9, -168}";
};
layerId = "15BDFF71-2BAF-4479-A38F-4FA7A571BE82";
paths = (
{
closed = 1;
nodes = (
"533 -49 OFFCURVE",
"709 19 OFFCURVE",
"709 193 CURVE SMOOTH",
"709 347 OFFCURVE",
"586 444 OFFCURVE",
"392 444 CURVE SMOOTH",
"289 444 OFFCURVE",
"243 469 OFFCURVE",
"243 521 CURVE SMOOTH",
"243 569 OFFCURVE",
"301 600 OFFCURVE",
"392 600 CURVE SMOOTH",
"476 600 OFFCURVE",
"521 577 OFFCURVE",
"556 560 CURVE SMOOTH",
"588 544 OFFCURVE",
"627 526 OFFCURVE",
"663 569 CURVE SMOOTH",
"727 645 OFFCURVE",
"574 739 OFFCURVE",
"392 739 CURVE SMOOTH",
"229 739 OFFCURVE",
"107 648 OFFCURVE",
"107 525 CURVE SMOOTH",
"107 395 OFFCURVE",
"221 309 OFFCURVE",
"392 309 CURVE SMOOTH",
"514 309 OFFCURVE",
"571 275 OFFCURVE",
"573 203 CURVE SMOOTH",
"575 130 OFFCURVE",
"514 91 OFFCURVE",
"392 91 CURVE SMOOTH",
"266 91 OFFCURVE",
"219 126 OFFCURVE",
"187 150 CURVE SMOOTH",
"163 168 OFFCURVE",
"130 192 OFFCURVE",
"90 152 CURVE SMOOTH",
"7 70 OFFCURVE",
"190 -49 OFFCURVE",
"392 -49 CURVE SMOOTH"
);
}
);
width = 779;
}
);
leftMetricsKey = "=H";
rightMetricsKey = "=H";
unicode = 0053;
},
{
glyphname = T;
lastChange = "2020-01-20 11:40:00 +0000";
layers = (
{
backgroundImage = {
crop = "{{0, 0}, {72, 99}}";
imagePath = images/T.jpg;
locked = "1";
transform = "{8.618, 0, 0, 8.618, 65, -60}";
};
layerId = "15BDFF71-2BAF-4479-A38F-4FA7A571BE82";
paths = (
{
closed = 1;
nodes = (
"70 634 OFFCURVE",
"101 603 OFFCURVE",
"136 603 CURVE SMOOTH",
"277 603 LINE SMOOTH",
"283 603 OFFCURVE",
"287 599 OFFCURVE",
"287 593 CURVE SMOOTH",
"287 36 LINE SMOOTH",
"287 1 OFFCURVE",
"318 -30 OFFCURVE",
"353 -30 CURVE SMOOTH",
"389 -30 OFFCURVE",
"418 0 OFFCURVE",
"418 36 CURVE SMOOTH",
"418 593 LINE SMOOTH",
"418 599 OFFCURVE",
"422 603 OFFCURVE",
"428 603 CURVE SMOOTH",
"568 603 LINE SMOOTH",
"604 603 OFFCURVE",
"633 633 OFFCURVE",
"633 669 CURVE SMOOTH",
"633 703 OFFCURVE",
"602 734 OFFCURVE",
"568 734 CURVE SMOOTH",
"136 734 LINE SMOOTH",
"99 734 OFFCURVE",
"70 705 OFFCURVE",
"70 669 CURVE SMOOTH"
);
}
);
width = 703;
}
);
leftMetricsKey = "=H";
rightMetricsKey = "=H";
unicode = 0054;
},
{
glyphname = U;
lastChange = "2020-01-20 11:40:00 +0000";
layers = (
{
backgroundImage = {
crop = "{{0, 0}, {79, 103}}";
imagePath = images/U.jpg;
locked = "1";
transform = "{8.958, 0, 0, 8.958, 25, -98}";
};
layerId = "15BDFF71-2BAF-4479-A38F-4FA7A571BE82";
paths = (
{
closed = 1;
nodes = (
"543 -67 OFFCURVE",
"681 71 OFFCURVE",
"681 238 CURVE SMOOTH",
"681 669 LINE",
"550 669 LINE",
"550 576 LINE",
"550 238 LINE SMOOTH",
"550 141 OFFCURVE",
"473 64 OFFCURVE",
"376 64 CURVE SMOOTH",
"280 64 OFFCURVE",
"201 142 OFFCURVE",
"201 238 CURVE SMOOTH",
"201 576 LINE",
"201 669 LINE",
"70 669 LINE",
"70 238 LINE SMOOTH",
"70 69 OFFCURVE",
"207 -67 OFFCURVE",
"376 -67 CURVE SMOOTH"
);
},
{
closed = 1;
nodes = (
"172 603 OFFCURVE",
"201 633 OFFCURVE",
"201 669 CURVE SMOOTH",
"201 703 OFFCURVE",
"170 734 OFFCURVE",
"136 734 CURVE SMOOTH",
"100 734 OFFCURVE",
"70 705 OFFCURVE",
"70 669 CURVE SMOOTH",
"70 634 OFFCURVE",
"101 603 OFFCURVE",
"136 603 CURVE SMOOTH"
);
},
{
closed = 1;
nodes = (
"652 603 OFFCURVE",
"681 633 OFFCURVE",
"681 669 CURVE SMOOTH",
"681 703 OFFCURVE",
"650 734 OFFCURVE",
"616 734 CURVE SMOOTH",
"580 734 OFFCURVE",
"550 705 OFFCURVE",
"550 669 CURVE SMOOTH",
"550 634 OFFCURVE",
"581 603 OFFCURVE",
"616 603 CURVE SMOOTH"
);
}
);
width = 751;
}
);
leftMetricsKey = "=H";
rightMetricsKey = "=H";
unicode = 0055;
},
{
glyphname = V;
lastChange = "2020-01-20 11:40:00 +0000";
layers = (
{
backgroundImage = {
crop = "{{0, 0}, {98, 118}}";
imagePath = images/V.jpg;
locked = "1";
transform = "{8.47966, 0, 0, 8.47966, -1, -133}";
};
layerId = "15BDFF71-2BAF-4479-A38F-4FA7A571BE82";
paths = (
{
closed = 1;
nodes = (
"432 -30 OFFCURVE",
"457 -14 OFFCURVE",
"466 9 CURVE SMOOTH",
"737 646 LINE SMOOTH",
"751 680 OFFCURVE",
"736 719 OFFCURVE",
"703 733 CURVE SMOOTH",
"670 748 OFFCURVE",
"631 732 OFFCURVE",
"617 698 CURVE SMOOTH",
"417 224 LINE SMOOTH",
"412 211 OFFCURVE",
"396 211 OFFCURVE",
"391 224 CURVE SMOOTH",
"195 698 LINE SMOOTH",
"181 732 OFFCURVE",
"142 748 OFFCURVE",
"109 733 CURVE SMOOTH",
"76 719 OFFCURVE",
"61 680 OFFCURVE",
"75 646 CURVE SMOOTH",
"346 9 LINE SMOOTH",
"355 -14 OFFCURVE",
"380 -30 OFFCURVE",
"404 -30 CURVE SMOOTH"
);
}
);
width = 812;
}
);
leftMetricsKey = "=H";
rightMetricsKey = "=H";
unicode = 0056;
},
{
glyphname = W;
lastChange = "2020-01-20 11:40:00 +0000";
layers = (
{
backgroundImage = {
crop = "{{0, 0}, {110, 98}}";
imagePath = images/W.jpg;
locked = "1";
transform = "{8.62928, 0, 0, 8.62928, 2, -72}";
};
layerId = "15BDFF71-2BAF-4479-A38F-4FA7A571BE82";
paths = (
{
closed = 1;
nodes = (
"129 431 LINE SMOOTH",
"145 369 OFFCURVE",
"159 317 OFFCURVE",
"171 272 CURVE SMOOTH",
"227 62 OFFCURVE",
"235 35 OFFCURVE",
"238 28 CURVE",
"247 -6 OFFCURVE",
"283 -26 OFFCURVE",
"319 -18 CURVE",
"339 -11 OFFCURVE",
"356 7 OFFCURVE",
"363 31 CURVE SMOOTH",
"481 390 LINE SMOOTH",
"486 405 OFFCURVE",
"506 405 OFFCURVE",
"511 390 CURVE SMOOTH",
"628 28 LINE",
"629 26 LINE",
"639 4 OFFCURVE",
"654 -11 OFFCURVE",
"672 -18 CURVE",
"705 -26 OFFCURVE",
"740 -8 OFFCURVE",
"751 23 CURVE",
"757 37 OFFCURVE",
"777 113 OFFCURVE",
"919 640 CURVE",
"927 676 OFFCURVE",
"906 711 OFFCURVE",
"872 722 CURVE",
"837 730 OFFCURVE",
"805 711 OFFCURVE",
"794 676 CURVE",
"700 332 LINE SMOOTH",
"696 316 OFFCURVE",
"673 315 OFFCURVE",
"668 331 CURVE SMOOTH",
"556 673 LINE",
"543 704 OFFCURVE",
"511 721 OFFCURVE",
"479 713 CURVE SMOOTH",
"457 707 OFFCURVE",
"438 689 OFFCURVE",
"432 669 CURVE SMOOTH",
"323 331 LINE SMOOTH",
"318 315 OFFCURVE",
"295 316 OFFCURVE",
"291 332 CURVE SMOOTH",
"196 683 LINE",
"183 713 OFFCURVE",
"151 729 OFFCURVE",
"119 722 CURVE",
"85 711 OFFCURVE",
"64 676 OFFCURVE",
"72 642 CURVE SMOOTH"
);
}
);
width = 991;
}
);
leftMetricsKey = "=H";
rightMetricsKey = "=H";
unicode = 0057;
},
{
glyphname = X;
lastChange = "2020-01-20 11:40:00 +0000";
layers = (
{
backgroundImage = {
crop = "{{0, 0}, {107, 123}}";
imagePath = images/X.jpg;
locked = "1";
transform = "{8.47638, 0, 0, 8.47638, -69, -186}";
};
layerId = "15BDFF71-2BAF-4479-A38F-4FA7A571BE82";
paths = (
{
closed = 1;
nodes = (
"62 50 OFFCURVE",
"68 7 OFFCURVE",
"96 -14 CURVE SMOOTH",
"125 -36 OFFCURVE",
"167 -29 OFFCURVE",
"188 0 CURVE SMOOTH",
"382 256 LINE SMOOTH",
"387 263 OFFCURVE",
"395 263 OFFCURVE",
"400 256 CURVE SMOOTH",
"593 0 LINE SMOOTH",
"614 -29 OFFCURVE",
"656 -36 OFFCURVE",
"685 -14 CURVE SMOOTH",
"713 7 OFFCURVE",
"719 50 OFFCURVE",
"698 78 CURVE SMOOTH",
"476 371 LINE SMOOTH",
"474 374 OFFCURVE",
"474 380 OFFCURVE",
"476 383 CURVE SMOOTH",
"661 627 LINE SMOOTH",
"682 655 OFFCURVE",
"676 697 OFFCURVE",
"648 718 CURVE SMOOTH",
"619 740 OFFCURVE",
"576 735 OFFCURVE",
"556 706 CURVE",
"399 498 LINE SMOOTH",
"394 491 OFFCURVE",
"386 491 OFFCURVE",
"381 498 CURVE SMOOTH",
"225 706 LINE",
"205 735 OFFCURVE",
"162 740 OFFCURVE",
"133 718 CURVE SMOOTH",
"105 697 OFFCURVE",
"99 655 OFFCURVE",
"120 627 CURVE SMOOTH",
"305 383 LINE SMOOTH",
"307 380 OFFCURVE",
"307 374 OFFCURVE",
"305 371 CURVE SMOOTH",
"83 78 LINE SMOOTH"
);
}
);
width = 781;
}
);
leftMetricsKey = "=H";
rightMetricsKey = "=H";
unicode = 0058;
},
{
glyphname = Y;
lastChange = "2020-01-20 11:40:00 +0000";
layers = (
{
backgroundImage = {
crop = "{{0, 0}, {82, 111}}";
imagePath = images/Y.jpg;
locked = "1";
transform = "{8.53135, 0, 0, 8.53135, 46, -124}";
};
layerId = "15BDFF71-2BAF-4479-A38F-4FA7A571BE82";
paths = (
{
closed = 1;
nodes = (
"283 330 LINE SMOOTH",
"292 317 OFFCURVE",
"297 301 OFFCURVE",
"297 285 CURVE SMOOTH",
"299 36 LINE SMOOTH",
"299 1 OFFCURVE",
"330 -30 OFFCURVE",
"365 -30 CURVE SMOOTH",
"401 -30 OFFCURVE",
"430 0 OFFCURVE",
"430 36 CURVE SMOOTH",
"432 286 LINE SMOOTH",
"432 302 OFFCURVE",
"437 318 OFFCURVE",
"446 331 CURVE SMOOTH",
"646 616 LINE",
"666 647 OFFCURVE",
"660 687 OFFCURVE",
"632 707 CURVE SMOOTH",
"602 729 OFFCURVE",
"562 722 OFFCURVE",
"540 692 CURVE SMOOTH",
"373 455 LINE SMOOTH",
"368 448 OFFCURVE",
"360 448 OFFCURVE",
"355 455 CURVE SMOOTH",
"190 690 LINE",
"188 693 LINE",
"166 722 OFFCURVE",
"126 728 OFFCURVE",
"96 707 CURVE SMOOTH",
"68 687 OFFCURVE",
"62 647 OFFCURVE",
"82 617 CURVE SMOOTH"
);
}
);
width = 728;
}
);
leftMetricsKey = "=H";
rightMetricsKey = "=H";
unicode = 0059;
},
{
glyphname = Z;
lastChange = "2020-01-20 11:40:00 +0000";
layers = (
{
backgroundImage = {
crop = "{{0, 0}, {100, 118}}";
imagePath = images/Z.jpg;
locked = "1";
transform = "{8.4482, 0, 0, 8.4482, -89, -142}";
};
layerId = "15BDFF71-2BAF-4479-A38F-4FA7A571BE82";
paths = (
{
closed = 1;
nodes = (
"62 50 OFFCURVE",
"68 7 OFFCURVE",
"96 -14 CURVE",
"109 -25 OFFCURVE",
"116 -25 OFFCURVE",
"254 -25 CURVE SMOOTH",
"340 -25 LINE",
"572 -25 LINE SMOOTH",
"607 -25 OFFCURVE",
"638 6 OFFCURVE",
"638 41 CURVE SMOOTH",
"638 77 OFFCURVE",
"608 106 OFFCURVE",
"572 106 CURVE SMOOTH",
"296 106 LINE SMOOTH",
"284 106 OFFCURVE",
"278 118 OFFCURVE",
"285 127 CURVE SMOOTH",
"661 627 LINE SMOOTH",
"682 655 OFFCURVE",
"676 697 OFFCURVE",
"648 718 CURVE SMOOTH",
"627 734 OFFCURVE",
"619 734 OFFCURVE",
"346 731 CURVE SMOOTH",
"298 731 OFFCURVE",
"242 730 OFFCURVE",
"177 730 CURVE SMOOTH",
"142 730 OFFCURVE",
"111 699 OFFCURVE",
"111 664 CURVE SMOOTH",
"111 628 OFFCURVE",
"141 599 OFFCURVE",
"177 599 CURVE SMOOTH",
"448 599 LINE SMOOTH",
"460 599 OFFCURVE",
"466 587 OFFCURVE",
"459 578 CURVE SMOOTH",
"83 78 LINE SMOOTH"
);
}
);
width = 744;
}
);
leftMetricsKey = "=H";
rightMetricsKey = "=H";
unicode = 005A;
},
{
glyphname = zero;
lastChange = "2020-01-20 11:42:48 +0000";
layers = (
{
backgroundImage = {
crop = "{{0, 0}, {91, 110}}";
imagePath = images/0.jpg;
locked = "1";
transform = "{8.78754, 0, 0, 8.78754, -16, -161}";
};
layerId = "15BDFF71-2BAF-4479-A38F-4FA7A571BE82";
paths = (
{
closed = 1;
nodes = (
"529 -31 OFFCURVE",
"667 139 OFFCURVE",
"667 351 CURVE SMOOTH",
"667 562 OFFCURVE",
"529 732 OFFCURVE",
"358 732 CURVE SMOOTH",
"187 732 OFFCURVE",
"50 562 OFFCURVE",
"50 351 CURVE SMOOTH",
"50 140 OFFCURVE",
"187 -31 OFFCURVE",
"358 -31 CURVE SMOOTH"
);
},
{
closed = 1;
nodes = (
"263 103 OFFCURVE",
"184 215 OFFCURVE",
"184 351 CURVE SMOOTH",
"184 487 OFFCURVE",
"263 598 OFFCURVE",
"358 598 CURVE SMOOTH",
"454 598 OFFCURVE",
"533 487 OFFCURVE",
"533 351 CURVE SMOOTH",
"533 214 OFFCURVE",
"454 103 OFFCURVE",
"358 103 CURVE SMOOTH"
);
}
);
width = 717;
}
);
leftMetricsKey = "=H";
rightMetricsKey = "=H";
unicode = 0030;
},
{
glyphname = one;
lastChange = "2020-01-20 11:42:48 +0000";
layers = (
{
backgroundImage = {
crop = "{{0, 0}, {40, 63}}";
imagePath = images/1.jpg;
transform = "{2.21597, -0.19909, 0.19909, 2.21597, -103, 0}";
};
layerId = "15BDFF71-2BAF-4479-A38F-4FA7A571BE82";
paths = (
{
closed = 1;
nodes = (
"232 -30 OFFCURVE",
"261 0 OFFCURVE",
"261 36 CURVE SMOOTH",
"261 669 LINE SMOOTH",
"261 703 OFFCURVE",
"230 734 OFFCURVE",
"196 734 CURVE SMOOTH",
"160 734 OFFCURVE",
"135 700 OFFCURVE",
"62 606 CURVE SMOOTH",
"33 570 OFFCURVE",
"58 517 OFFCURVE",
"106 517 CURVE SMOOTH",
"145 517 LINE",
"145 537 LINE",
"148 537 OFFCURVE",
"150 535 OFFCURVE",
"150 532 CURVE",
"130 532 LINE",
"130 36 LINE SMOOTH",
"130 1 OFFCURVE",
"161 -30 OFFCURVE",
"196 -30 CURVE SMOOTH"
);
}
);
width = 311;
}
);
leftMetricsKey = "=H";
rightMetricsKey = "=H";
unicode = 0031;
},
{
glyphname = two;
lastChange = "2020-01-20 11:42:48 +0000";
layers = (
{
backgroundImage = {
crop = "{{0, 0}, {82, 82}}";
imagePath = images/2.jpg;
locked = "1";
transform = "{13.13766, 0, 0, 13.13766, -154, -197}";
};
layerId = "15BDFF71-2BAF-4479-A38F-4FA7A571BE82";
paths = (
{
closed = 1;
nodes = (
"39 559 OFFCURVE",
"56 514 OFFCURVE",
"93 502 CURVE SMOOTH",
"129 490 OFFCURVE",
"159 525 OFFCURVE",
"178 549 CURVE SMOOTH",
"208 587 OFFCURVE",
"250 607 OFFCURVE",
"303 607 CURVE SMOOTH",
"381 607 OFFCURVE",
"436 556 OFFCURVE",
"436 486 CURVE SMOOTH",
"436 435 OFFCURVE",
"371 407 OFFCURVE",
"291 374 CURVE SMOOTH",
"284 371 OFFCURVE",
"277 368 OFFCURVE",
"270 365 CURVE",
"252 359 OFFCURVE",
"235 352 OFFCURVE",
"220 344 CURVE SMOOTH",
"118 293 OFFCURVE",
"55 199 OFFCURVE",
"55 96 CURVE SMOOTH",
"55 15 OFFCURVE",
"86 -27 OFFCURVE",
"147 -27 CURVE SMOOTH",
"529 -27 LINE SMOOTH",
"565 -27 OFFCURVE",
"597 5 OFFCURVE",
"597 41 CURVE SMOOTH",
"597 77 OFFCURVE",
"565 109 OFFCURVE",
"529 109 CURVE SMOOTH",
"210 109 LINE SMOOTH",
"200 109 OFFCURVE",
"201 102 OFFCURVE",
"201 124 CURVE SMOOTH",
"201 178 OFFCURVE",
"242 216 OFFCURVE",
"335 250 CURVE SMOOTH",
"424 281 OFFCURVE",
"562 329 OFFCURVE",
"562 486 CURVE SMOOTH",
"562 631 OFFCURVE",
"449 737 OFFCURVE",
"293 737 CURVE SMOOTH",
"199 737 OFFCURVE",
"93 674 OFFCURVE",
"57 596 CURVE SMOOTH"
);
}
);
width = 647;
}
);
leftMetricsKey = "=H";
rightMetricsKey = "=H";
unicode = 0032;
},
{
glyphname = three;
lastChange = "2020-01-20 11:42:48 +0000";
layers = (
{
backgroundImage = {
crop = "{{0, 0}, {80, 74}}";
imagePath = images/3.jpg;
locked = "1";
transform = "{13.51446, 0, 0, 13.51446, -279, -92}";
};
layerId = "15BDFF71-2BAF-4479-A38F-4FA7A571BE82";
paths = (
{
closed = 1;
nodes = (
"432 -30 OFFCURVE",
"540 68 OFFCURVE",
"540 196 CURVE SMOOTH",
"540 277 OFFCURVE",
"495 353 OFFCURVE",
"418 402 CURVE",
"418 384 LINE",
"418 384 OFFCURVE",
"417 370 OFFCURVE",
"417 370 CURVE",
"415 347 LINE",
"474 389 OFFCURVE",
"507 449 OFFCURVE",
"507 513 CURVE SMOOTH",
"507 627 OFFCURVE",
"403 721 OFFCURVE",
"275 721 CURVE SMOOTH",
"188 721 OFFCURVE",
"95 669 OFFCURVE",
"69 605 CURVE SMOOTH",
"52 566 OFFCURVE",
"67 527 OFFCURVE",
"104 515 CURVE SMOOTH",
"147 501 OFFCURVE",
"170 536 OFFCURVE",
"180 549 CURVE",
"200 577 OFFCURVE",
"235 593 OFFCURVE",
"275 593 CURVE SMOOTH",
"331 593 OFFCURVE",
"378 556 OFFCURVE",
"378 513 CURVE SMOOTH",
"378 469 OFFCURVE",
"360 447 OFFCURVE",
"317 440 CURVE SMOOTH",
"280 433 OFFCURVE",
"259 410 OFFCURVE",
"259 376 CURVE SMOOTH",
"259 346 OFFCURVE",
"283 318 OFFCURVE",
"317 307 CURVE SMOOTH",
"351 297 OFFCURVE",
"406 264 OFFCURVE",
"406 196 CURVE SMOOTH",
"406 136 OFFCURVE",
"361 97 OFFCURVE",
"291 97 CURVE SMOOTH",
"236 97 OFFCURVE",
"192 126 OFFCURVE",
"172 175 CURVE",
"163 207 OFFCURVE",
"127 227 OFFCURVE",
"95 219 CURVE",
"63 208 OFFCURVE",
"45 178 OFFCURVE",
"51 144 CURVE SMOOTH",
"73 37 OFFCURVE",
"166 -30 OFFCURVE",
"291 -30 CURVE SMOOTH"
);
}
);
width = 590;
}
);
leftMetricsKey = "=H";
rightMetricsKey = "=H";
unicode = 0033;
},
{
glyphname = four;
lastChange = "2020-01-20 11:42:48 +0000";
layers = (
{
backgroundImage = {
crop = "{{0, 0}, {53, 68}}";
imagePath = images/4.jpg;
locked = "1";
transform = "{13.10728, 0, 0, 13.10728, -16, -69}";
};
layerId = "15BDFF71-2BAF-4479-A38F-4FA7A571BE82";
paths = (
{
closed = 1;
nodes = (
"503 -30 OFFCURVE",
"532 0 OFFCURVE",
"532 36 CURVE SMOOTH",
"532 158 LINE",
"512 158 LINE",
"512 161 OFFCURVE",
"514 163 OFFCURVE",
"517 163 CURVE",
"517 143 LINE",
"558 143 LINE SMOOTH",
"592 142 OFFCURVE",
"624 173 OFFCURVE",
"624 208 CURVE SMOOTH",
"624 245 OFFCURVE",
"594 275 OFFCURVE",
"558 274 CURVE SMOOTH",
"517 274 LINE",
"517 254 LINE",
"514 254 OFFCURVE",
"512 256 OFFCURVE",
"512 259 CURVE",
"532 259 LINE",
"532 669 LINE SMOOTH",
"532 703 OFFCURVE",
"501 734 OFFCURVE",
"467 734 CURVE SMOOTH",
"447 734 OFFCURVE",
"430 727 OFFCURVE",
"419 713 CURVE SMOOTH",
"67 255 LINE",
"55 241 OFFCURVE",
"50 227 OFFCURVE",
"50 208 CURVE SMOOTH",
"50 174 OFFCURVE",
"81 143 OFFCURVE",
"115 143 CURVE SMOOTH",
"416 143 LINE",
"416 163 LINE",
"419 163 OFFCURVE",
"421 161 OFFCURVE",
"421 158 CURVE",
"401 158 LINE",
"401 36 LINE SMOOTH",
"401 1 OFFCURVE",
"432 -30 OFFCURVE",
"467 -30 CURVE SMOOTH"
);
},
{
closed = 1;
nodes = (
"215 254 LINE",
"212 254 OFFCURVE",
"210 256 OFFCURVE",
"212 259 CURVE",
"220 253 LINE",
"220 236 LINE",
"429 513 LINE",
"376 533 OFFCURVE",
"455 509 OFFCURVE",
"401 522 CURVE",
"401 261 LINE",
"421 261 LINE",
"421 257 OFFCURVE",
"418 254 OFFCURVE",
"414 254 CURVE",
"414 274 LINE",
"215 274 LINE"
);
}
);
width = 674;
}
);
leftMetricsKey = "=H";
rightMetricsKey = "=H";
unicode = 0034;
},
{
glyphname = five;
lastChange = "2020-01-20 11:42:48 +0000";
layers = (
{
backgroundImage = {
crop = "{{0, 0}, {52, 70}}";
imagePath = images/5.jpg;
locked = "1";
transform = "{12.961, 0, 0, 12.961, -64, -90}";
};
layerId = "15BDFF71-2BAF-4479-A38F-4FA7A571BE82";
paths = (
{
closed = 1;
nodes = (
"452 -30 OFFCURVE",
"569 93 OFFCURVE",
"569 257 CURVE SMOOTH",
"569 421 OFFCURVE",
"452 544 OFFCURVE",
"296 544 CURVE SMOOTH",
"263 544 OFFCURVE",
"239 540 OFFCURVE",
"219 537 CURVE",
"216 536 OFFCURVE",
"214 536 OFFCURVE",
"211 536 CURVE SMOOTH",
"208 536 OFFCURVE",
"205 535 OFFCURVE",
"202 535 CURVE",
"200 534 OFFCURVE",
"198 534 OFFCURVE",
"196 534 CURVE SMOOTH",
"193 534 OFFCURVE",
"190 533 OFFCURVE",
"187 533 CURVE",
"181 517 LINE",
"181 517 OFFCURVE",
"202 519 OFFCURVE",
"202 520 CURVE SMOOTH",
"202 592 LINE",
"202 591 OFFCURVE",
"198 589 OFFCURVE",
"199 589 CURVE SMOOTH",
"463 589 LINE SMOOTH",
"500 589 OFFCURVE",
"531 620 OFFCURVE",
"531 658 CURVE SMOOTH",
"531 693 OFFCURVE",
"498 726 OFFCURVE",
"463 726 CURVE SMOOTH",
"111 726 LINE SMOOTH",
"81 726 OFFCURVE",
"54 699 OFFCURVE",
"54 669 CURVE SMOOTH",
"54 363 LINE SMOOTH",
"54 286 OFFCURVE",
"167 273 OFFCURVE",
"196 346 CURVE",
"215 389 OFFCURVE",
"242 406 OFFCURVE",
"296 406 CURVE SMOOTH",
"374 406 OFFCURVE",
"428 345 OFFCURVE",
"428 257 CURVE SMOOTH",
"428 169 OFFCURVE",
"374 108 OFFCURVE",
"296 108 CURVE SMOOTH",
"234 108 OFFCURVE",
"206 125 OFFCURVE",
"188 173 CURVE",
"161 258 OFFCURVE",
"28 227 OFFCURVE",
"52 140 CURVE",
"85 36 OFFCURVE",
"179 -30 OFFCURVE",
"296 -30 CURVE SMOOTH"
);
}
);
width = 619;
}
);
leftMetricsKey = "=H";
rightMetricsKey = "=H";
unicode = 0035;
},
{
glyphname = six;
lastChange = "2020-01-20 11:42:48 +0000";
layers = (
{
backgroundImage = {
crop = "{{0, 0}, {52, 59}}";
imagePath = images/6.jpg;
locked = "1";
transform = "{13.2218, 0, 0, 13.2218, 56, -51}";
};
layerId = "15BDFF71-2BAF-4479-A38F-4FA7A571BE82";
paths = (
{
closed = 1;
nodes = (
"510 -30 OFFCURVE",
"631 76 OFFCURVE",
"631 212 CURVE SMOOTH",
"631 352 OFFCURVE",
"507 463 OFFCURVE",
"353 463 CURVE SMOOTH",
"320 463 OFFCURVE",
"255 462 OFFCURVE",
"202 442 CURVE",
"190 385 OFFCURVE",
"208 472 OFFCURVE",
"216 497 CURVE",
"238 548 OFFCURVE",
"291 581 OFFCURVE",
"353 581 CURVE SMOOTH",
"422 581 OFFCURVE",
"471 552 OFFCURVE",
"500 493 CURVE SMOOTH",
"541 416 OFFCURVE",
"656 451 OFFCURVE",
"633 533 CURVE",
"595 652 OFFCURVE",
"494 720 OFFCURVE",
"353 720 CURVE SMOOTH",
"160 720 OFFCURVE",
"50 575 OFFCURVE",
"50 322 CURVE SMOOTH",
"50 92 OFFCURVE",
"154 -30 OFFCURVE",
"353 -30 CURVE SMOOTH"
);
},
{
closed = 1;
nodes = (
"266 94 OFFCURVE",
"210 144 OFFCURVE",
"210 219 CURVE SMOOTH",
"210 286 OFFCURVE",
"267 331 OFFCURVE",
"353 331 CURVE SMOOTH",
"435 331 OFFCURVE",
"503 276 OFFCURVE",
"503 212 CURVE SMOOTH",
"503 142 OFFCURVE",
"443 94 OFFCURVE",
"353 94 CURVE SMOOTH"
);
}
);
width = 685;
}
);
leftMetricsKey = "=H";
rightMetricsKey = "=H";
unicode = 0036;
},
{
glyphname = seven;
lastChange = "2020-01-20 11:42:48 +0000";
layers = (
{
backgroundImage = {
crop = "{{0, 0}, {94, 115}}";
imagePath = images/7.jpg;
locked = "1";
transform = "{8.54759, 0, 0, 8.54759, -59, -133}";
};
layerId = "15BDFF71-2BAF-4479-A38F-4FA7A571BE82";
paths = (
{
closed = 1;
nodes = (
"266 -33 OFFCURVE",
"293 -11 OFFCURVE",
"300 20 CURVE SMOOTH",
"327 137 OFFCURVE",
"358 250 OFFCURVE",
"404 328 CURVE SMOOTH",
"474 454 OFFCURVE",
"585 576 OFFCURVE",
"626 625 CURVE SMOOTH",
"638 640 OFFCURVE",
"643 653 OFFCURVE",
"643 669 CURVE SMOOTH",
"643 703 OFFCURVE",
"612 734 OFFCURVE",
"578 734 CURVE SMOOTH",
"116 734 LINE SMOOTH",
"79 734 OFFCURVE",
"50 705 OFFCURVE",
"50 669 CURVE SMOOTH",
"50 634 OFFCURVE",
"81 603 OFFCURVE",
"116 603 CURVE SMOOTH",
"473 603 LINE",
"473 623 LINE",
"477 623 OFFCURVE",
"480 619 OFFCURVE",
"477 616 CURVE",
"463 630 LINE",
"415 580 OFFCURVE",
"335 482 OFFCURVE",
"276 369 CURVE SMOOTH",
"224 266 OFFCURVE",
"192 169 OFFCURVE",
"171 49 CURVE SMOOTH",
"164 1 OFFCURVE",
"192 -33 OFFCURVE",
"236 -33 CURVE SMOOTH"
);
}
);
width = 693;
}
);
leftMetricsKey = "=H";
rightMetricsKey = "=H";
unicode = 0037;
},
{
glyphname = eight;
lastChange = "2020-01-20 11:42:48 +0000";
layers = (
{
backgroundImage = {
crop = "{{0, 0}, {104, 114}}";
imagePath = images/8.jpg;
locked = "1";
transform = "{8.78932, 0, 0, 8.78932, -123, -147}";
};
layerId = "15BDFF71-2BAF-4479-A38F-4FA7A571BE82";
paths = (
{
closed = 1;
nodes = (
"505 -24 OFFCURVE",
"635 82 OFFCURVE",
"635 213 CURVE SMOOTH",
"635 344 OFFCURVE",
"504 451 OFFCURVE",
"343 451 CURVE SMOOTH",
"181 451 OFFCURVE",
"50 345 OFFCURVE",
"50 213 CURVE SMOOTH",
"50 82 OFFCURVE",
"182 -24 OFFCURVE",
"343 -24 CURVE SMOOTH"
);
},
{
closed = 1;
nodes = (
"256 104 OFFCURVE",
"187 153 OFFCURVE",
"187 213 CURVE SMOOTH",
"187 273 OFFCURVE",
"257 323 OFFCURVE",
"343 323 CURVE SMOOTH",
"429 323 OFFCURVE",
"498 274 OFFCURVE",
"498 213 CURVE SMOOTH",
"498 154 OFFCURVE",
"428 104 OFFCURVE",
"343 104 CURVE SMOOTH"
);
},
{
closed = 1;
nodes = (
"493 323 OFFCURVE",
"617 416 OFFCURVE",
"617 530 CURVE SMOOTH",
"617 646 OFFCURVE",
"495 738 OFFCURVE",
"343 738 CURVE SMOOTH",
"192 738 OFFCURVE",
"68 645 OFFCURVE",
"68 530 CURVE SMOOTH",
"68 415 OFFCURVE",
"191 323 OFFCURVE",
"343 323 CURVE SMOOTH"
);
},
{
closed = 1;
nodes = (
"272 451 OFFCURVE",
"210 489 OFFCURVE",
"210 530 CURVE SMOOTH",
"210 572 OFFCURVE",
"271 610 OFFCURVE",
"343 610 CURVE SMOOTH",
"415 610 OFFCURVE",
"475 572 OFFCURVE",
"475 530 CURVE SMOOTH",
"475 489 OFFCURVE",
"413 451 OFFCURVE",
"343 451 CURVE SMOOTH"
);
}
);
width = 685;
}
);
leftMetricsKey = "=H";
rightMetricsKey = "=H";
unicode = 0038;
},
{
glyphname = nine;
lastChange = "2020-01-20 11:49:53 +0000";
layers = (
{
backgroundImage = {
crop = "{{0, 0}, {67, 65}}";
imagePath = images/9.jpg;
locked = "1";
transform = "{13.08904, 0, 0, 13.08904, -112, -98}";
};
layerId = "15BDFF71-2BAF-4479-A38F-4FA7A571BE82";
paths = (
{
closed = 1;
nodes = (
"175 720 OFFCURVE",
"54 614 OFFCURVE",
"54 478 CURVE SMOOTH",
"54 338 OFFCURVE",
"178 227 OFFCURVE",
"332 227 CURVE SMOOTH",
"365 227 OFFCURVE",
"430 228 OFFCURVE",
"483 248 CURVE",
"495 305 OFFCURVE",
"477 218 OFFCURVE",
"469 193 CURVE",
"447 142 OFFCURVE",
"394 109 OFFCURVE",
"332 109 CURVE SMOOTH",
"263 109 OFFCURVE",
"214 138 OFFCURVE",
"185 197 CURVE SMOOTH",
"144 274 OFFCURVE",
"29 239 OFFCURVE",
"52 157 CURVE",
"90 38 OFFCURVE",
"191 -30 OFFCURVE",
"332 -30 CURVE SMOOTH",
"525 -30 OFFCURVE",
"635 115 OFFCURVE",
"635 368 CURVE SMOOTH",
"635 598 OFFCURVE",
"531 720 OFFCURVE",
"332 720 CURVE SMOOTH"
);
},
{
closed = 1;
nodes = (
"419 596 OFFCURVE",
"475 546 OFFCURVE",
"475 471 CURVE SMOOTH",
"475 404 OFFCURVE",
"418 359 OFFCURVE",
"332 359 CURVE SMOOTH",
"250 359 OFFCURVE",
"182 414 OFFCURVE",
"182 478 CURVE SMOOTH",
"182 548 OFFCURVE",
"242 596 OFFCURVE",
"332 596 CURVE SMOOTH"
);
}
);
width = 685;
}
);
leftMetricsKey = "=H";
rightMetricsKey = "=H";
unicode = 0039;
},
{
glyphname = period;
lastChange = "2020-01-20 11:40:00 +0000";
layers = (
{
layerId = "15BDFF71-2BAF-4479-A38F-4FA7A571BE82";
paths = (
{
closed = 1;
nodes = (
"159 -7 OFFCURVE",
"185 19 OFFCURVE",
"185 51 CURVE SMOOTH",
"185 82 OFFCURVE",
"159 108 OFFCURVE",
"128 108 CURVE SMOOTH",
"96 108 OFFCURVE",
"70 82 OFFCURVE",
"70 51 CURVE SMOOTH",
"70 19 OFFCURVE",
"96 -7 OFFCURVE",
"128 -7 CURVE SMOOTH"
);
}
);
width = 255;
}
);
leftMetricsKey = "=H";
rightMetricsKey = "=H";
unicode = 002E;
},
{
glyphname = comma;
lastChange = "2020-01-20 11:40:00 +0000";
layers = (
{
backgroundImage = {
crop = "{{0, 0}, {56, 43}}";
imagePath = images/_comma.jpg;
locked = "1";
transform = "{7.73395, 0, 0, 7.73395, -45, -187}";
};
layerId = "15BDFF71-2BAF-4479-A38F-4FA7A571BE82";
paths = (
{
closed = 1;
nodes = (
"161 -72 OFFCURVE",
"197 -31 OFFCURVE",
"200 23 CURVE SMOOTH",
"204 89 OFFCURVE",
"159 108 OFFCURVE",
"128 108 CURVE SMOOTH",
"96 108 OFFCURVE",
"70 82 OFFCURVE",
"70 51 CURVE SMOOTH",
"70 19 OFFCURVE",
"96 -7 OFFCURVE",
"128 -7 CURVE SMOOTH",
"142 -7 OFFCURVE",
"104 -37 OFFCURVE",
"97 -44 CURVE SMOOTH",
"66 -75 OFFCURVE",
"102 -110 OFFCURVE",
"133 -90 CURVE SMOOTH"
);
}
);
width = 270;
}
);
leftMetricsKey = "=H";
rightMetricsKey = "=H";
unicode = 002C;
},
{
glyphname = colon;
lastChange = "2020-01-20 11:40:00 +0000";
layers = (
{
backgroundImage = {
crop = "{{0, 0}, {39, 55}}";
imagePath = images/_colon.jpg;
transform = "{7.97357, 0, 0, 7.97357, 1, -115}";
};
layerId = "15BDFF71-2BAF-4479-A38F-4FA7A571BE82";
paths = (
{
closed = 1;
nodes = (
"159 160 OFFCURVE",
"185 186 OFFCURVE",
"185 218 CURVE SMOOTH",
"185 249 OFFCURVE",
"159 275 OFFCURVE",
"128 275 CURVE SMOOTH",
"96 275 OFFCURVE",
"70 249 OFFCURVE",
"70 218 CURVE SMOOTH",
"70 186 OFFCURVE",
"96 160 OFFCURVE",
"128 160 CURVE SMOOTH"
);
},
{
closed = 1;
nodes = (
"159 -7 OFFCURVE",
"185 19 OFFCURVE",
"185 51 CURVE SMOOTH",
"185 82 OFFCURVE",
"159 108 OFFCURVE",
"128 108 CURVE SMOOTH",
"96 108 OFFCURVE",
"70 82 OFFCURVE",
"70 51 CURVE SMOOTH",
"70 19 OFFCURVE",
"96 -7 OFFCURVE",
"128 -7 CURVE SMOOTH"
);
}
);
width = 255;
}
);
leftMetricsKey = "=H";
rightMetricsKey = "=H";
unicode = 003A;
},
{
glyphname = semicolon;
lastChange = "2020-01-20 11:40:00 +0000";
layers = (
{
backgroundImage = {
crop = "{{0, 0}, {48, 83}}";
imagePath = images/_semi.jpg;
locked = "1";
transform = "{8.25635, 0, 0, 8.25635, -39, -281}";
};
layerId = "15BDFF71-2BAF-4479-A38F-4FA7A571BE82";
paths = (
{
closed = 1;
nodes = (
"161 -72 OFFCURVE",
"197 -31 OFFCURVE",
"200 23 CURVE SMOOTH",
"204 89 OFFCURVE",
"159 108 OFFCURVE",
"128 108 CURVE SMOOTH",
"96 108 OFFCURVE",
"70 82 OFFCURVE",
"70 51 CURVE SMOOTH",
"70 19 OFFCURVE",
"96 -7 OFFCURVE",
"128 -7 CURVE SMOOTH",
"142 -7 OFFCURVE",
"104 -37 OFFCURVE",
"97 -44 CURVE SMOOTH",
"66 -75 OFFCURVE",
"102 -110 OFFCURVE",
"133 -90 CURVE SMOOTH"
);
},
{
closed = 1;
nodes = (
"159 160 OFFCURVE",
"185 186 OFFCURVE",
"185 218 CURVE SMOOTH",
"185 249 OFFCURVE",
"159 275 OFFCURVE",
"128 275 CURVE SMOOTH",
"96 275 OFFCURVE",
"70 249 OFFCURVE",
"70 218 CURVE SMOOTH",
"70 186 OFFCURVE",
"96 160 OFFCURVE",
"128 160 CURVE SMOOTH"
);
}
);
width = 270;
}
);
leftMetricsKey = "=H";
rightMetricsKey = "=H";
unicode = 003B;
},
{
glyphname = exclam;
lastChange = "2020-01-20 11:40:00 +0000";
layers = (
{
backgroundImage = {
crop = "{{0, 0}, {38, 68}}";
imagePath = images/_exclam.jpg;
locked = "1";
transform = "{3.57279, -0.38476, 0.38476, 3.57279, -190, 5}";
};
layerId = "15BDFF71-2BAF-4479-A38F-4FA7A571BE82";
paths = (
{
closed = 1;
nodes = (
"170 253 LINE",
"185 643 LINE",
"70 643 LINE",
"85 253 LINE"
);
},
{
closed = 1;
nodes = (
"159 -7 OFFCURVE",
"185 19 OFFCURVE",
"185 51 CURVE SMOOTH",
"185 82 OFFCURVE",
"159 108 OFFCURVE",
"128 108 CURVE SMOOTH",
"96 108 OFFCURVE",
"70 82 OFFCURVE",
"70 51 CURVE SMOOTH",
"70 19 OFFCURVE",
"96 -7 OFFCURVE",
"128 -7 CURVE SMOOTH"
);
},
{
closed = 1;
nodes = (
"151 210 OFFCURVE",
"170 229 OFFCURVE",
"170 253 CURVE SMOOTH",
"170 276 OFFCURVE",
"151 295 OFFCURVE",
"128 295 CURVE SMOOTH",
"104 295 OFFCURVE",
"85 276 OFFCURVE",
"85 253 CURVE SMOOTH",
"85 229 OFFCURVE",
"104 210 OFFCURVE",
"128 210 CURVE SMOOTH"
);
},
{
closed = 1;
nodes = (
"159 585 OFFCURVE",
"185 611 OFFCURVE",
"185 643 CURVE SMOOTH",
"185 674 OFFCURVE",
"159 700 OFFCURVE",
"128 700 CURVE SMOOTH",
"96 700 OFFCURVE",
"70 674 OFFCURVE",
"70 643 CURVE SMOOTH",
"70 611 OFFCURVE",
"96 585 OFFCURVE",
"128 585 CURVE SMOOTH"
);
}
);
width = 255;
}
);
leftMetricsKey = "=H";
rightMetricsKey = "=H";
unicode = 0021;
},
{
glyphname = question;
lastChange = "2020-01-20 11:40:00 +0000";
layers = (
{
backgroundImage = {
crop = "{{0, 0}, {54, 73}}";
imagePath = images/_questionmark.jpg;
locked = "1";
transform = "{13.20037, 0, 0, 13.20037, -106, -54}";
};
layerId = "15BDFF71-2BAF-4479-A38F-4FA7A571BE82";
paths = (
{
closed = 1;
nodes = (
"180 198 OFFCURVE",
"300 198 OFFCURVE",
"299 282 CURVE SMOOTH",
"298 342 LINE SMOOTH",
"297 380 OFFCURVE",
"437 369 OFFCURVE",
"437 534 CURVE SMOOTH",
"437 618 OFFCURVE",
"374 721 OFFCURVE",
"260 721 CURVE SMOOTH",
"155 721 OFFCURVE",
"99 659 OFFCURVE",
"76 602 CURVE SMOOTH",
"45 524 OFFCURVE",
"148 483 OFFCURVE",
"179 546 CURVE SMOOTH",
"190 568 OFFCURVE",
"205 592 OFFCURVE",
"247 592 CURVE SMOOTH",
"280 592 OFFCURVE",
"309 564 OFFCURVE",
"309 532 CURVE SMOOTH",
"309 500 OFFCURVE",
"288 468 OFFCURVE",
"242 457 CURVE SMOOTH",
"210 449 OFFCURVE",
"180 447 OFFCURVE",
"181 402 CURVE SMOOTH",
"182 357 OFFCURVE",
"180 317 OFFCURVE",
"180 282 CURVE SMOOTH"
);
},
{
closed = 1;
nodes = (
"288 -1 OFFCURVE",
"326 37 OFFCURVE",
"326 83 CURVE SMOOTH",
"326 129 OFFCURVE",
"288 167 OFFCURVE",
"242 167 CURVE SMOOTH",
"196 167 OFFCURVE",
"158 129 OFFCURVE",
"158 83 CURVE SMOOTH",
"158 37 OFFCURVE",
"196 -1 OFFCURVE",
"242 -1 CURVE SMOOTH"
);
}
);
width = 507;
}
);
leftMetricsKey = "=H";
rightMetricsKey = "=H";
unicode = 003F;
},
{
glyphname = asterisk;
lastChange = "2020-01-20 11:40:00 +0000";
layers = (
{
backgroundImage = {
crop = "{{0, 0}, {68, 68}}";
imagePath = images/_asterisk.jpg;
locked = "1";
transform = "{8.27829, 0, 0, 8.27829, -4, 197}";
};
layerId = "15BDFF71-2BAF-4479-A38F-4FA7A571BE82";
paths = (
{
closed = 1;
nodes = (
"296 290 OFFCURVE",
"312 306 OFFCURVE",
"312 326 CURVE SMOOTH",
"312 401 LINE SMOOTH",
"312 405 OFFCURVE",
"316 407 OFFCURVE",
"319 404 CURVE SMOOTH",
"372 351 LINE SMOOTH",
"386 337 OFFCURVE",
"409 337 OFFCURVE",
"423 350 CURVE",
"437 364 OFFCURVE",
"437 387 OFFCURVE",
"423 401 CURVE SMOOTH",
"369 455 LINE SMOOTH",
"366 458 OFFCURVE",
"368 462 OFFCURVE",
"372 462 CURVE SMOOTH",
"449 462 LINE SMOOTH",
"468 462 OFFCURVE",
"484 478 OFFCURVE",
"484 497 CURVE SMOOTH",
"484 517 OFFCURVE",
"468 533 OFFCURVE",
"449 533 CURVE SMOOTH",
"372 533 LINE SMOOTH",
"368 533 OFFCURVE",
"366 537 OFFCURVE",
"369 540 CURVE SMOOTH",
"423 594 LINE",
"437 607 OFFCURVE",
"437 630 OFFCURVE",
"423 643 CURVE",
"409 657 OFFCURVE",
"386 657 OFFCURVE",
"373 644 CURVE SMOOTH",
"319 590 LINE SMOOTH",
"316 587 OFFCURVE",
"312 589 OFFCURVE",
"312 593 CURVE SMOOTH",
"312 669 LINE SMOOTH",
"312 688 OFFCURVE",
"296 704 OFFCURVE",
"277 704 CURVE SMOOTH",
"257 704 OFFCURVE",
"241 688 OFFCURVE",
"241 669 CURVE SMOOTH",
"241 593 LINE SMOOTH",
"241 589 OFFCURVE",
"237 587 OFFCURVE",
"234 590 CURVE SMOOTH",
"180 644 LINE SMOOTH",
"167 657 OFFCURVE",
"144 657 OFFCURVE",
"130 643 CURVE",
"116 630 OFFCURVE",
"116 607 OFFCURVE",
"130 594 CURVE",
"184 540 LINE SMOOTH",
"187 537 OFFCURVE",
"185 533 OFFCURVE",
"181 533 CURVE SMOOTH",
"106 533 LINE SMOOTH",
"86 533 OFFCURVE",
"70 517 OFFCURVE",
"70 497 CURVE SMOOTH",
"70 478 OFFCURVE",
"86 462 OFFCURVE",
"106 462 CURVE SMOOTH",
"181 462 LINE SMOOTH",
"185 462 OFFCURVE",
"187 458 OFFCURVE",
"184 455 CURVE SMOOTH",
"130 401 LINE SMOOTH",
"116 387 OFFCURVE",
"116 364 OFFCURVE",
"130 350 CURVE",
"144 337 OFFCURVE",
"167 337 OFFCURVE",
"181 351 CURVE SMOOTH",
"234 404 LINE SMOOTH",
"237 407 OFFCURVE",
"241 405 OFFCURVE",
"241 401 CURVE SMOOTH",
"241 326 LINE SMOOTH",
"241 306 OFFCURVE",
"257 290 OFFCURVE",
"277 290 CURVE SMOOTH"
);
}
);
width = 554;
}
);
leftMetricsKey = "=H";
rightMetricsKey = "=H";
unicode = 002A;
},
{
glyphname = numbersign;
lastChange = "2020-01-20 11:40:00 +0000";
layers = (
{
backgroundImage = {
crop = "{{0, 0}, {93, 75}}";
imagePath = images/_numbersign.jpg;
locked = "1";
transform = "{13.43517, 0, 0, 13.43517, -194, -86}";
};
layerId = "15BDFF71-2BAF-4479-A38F-4FA7A571BE82";
paths = (
{
closed = 1;
nodes = (
"184 13 OFFCURVE",
"204 22 OFFCURVE",
"211 40 CURVE",
"270 204 LINE SMOOTH",
"272 208 OFFCURVE",
"277 211 OFFCURVE",
"281 211 CURVE SMOOTH",
"424 211 LINE SMOOTH",
"434 211 OFFCURVE",
"440 201 OFFCURVE",
"437 192 CURVE SMOOTH",
"391 65 LINE SMOOTH",
"384 47 OFFCURVE",
"394 25 OFFCURVE",
"413 19 CURVE SMOOTH",
"431 13 OFFCURVE",
"451 22 OFFCURVE",
"458 40 CURVE",
"517 204 LINE SMOOTH",
"519 208 OFFCURVE",
"524 211 OFFCURVE",
"528 211 CURVE SMOOTH",
"649 211 LINE SMOOTH",
"668 211 OFFCURVE",
"684 227 OFFCURVE",
"684 246 CURVE SMOOTH",
"684 266 OFFCURVE",
"668 282 OFFCURVE",
"649 282 CURVE SMOOTH",
"566 282 LINE SMOOTH",
"556 282 OFFCURVE",
"550 292 OFFCURVE",
"553 301 CURVE SMOOTH",
"602 437 LINE SMOOTH",
"604 441 OFFCURVE",
"609 444 OFFCURVE",
"613 444 CURVE SMOOTH",
"721 444 LINE SMOOTH",
"740 444 OFFCURVE",
"756 460 OFFCURVE",
"756 479 CURVE SMOOTH",
"756 499 OFFCURVE",
"740 515 OFFCURVE",
"721 515 CURVE SMOOTH",
"651 515 LINE SMOOTH",
"641 515 OFFCURVE",
"635 525 OFFCURVE",
"638 534 CURVE SMOOTH",
"685 663 LINE SMOOTH",
"692 681 OFFCURVE",
"682 702 OFFCURVE",
"664 708 CURVE SMOOTH",
"645 714 OFFCURVE",
"625 705 OFFCURVE",
"618 688 CURVE",
"558 522 LINE SMOOTH",
"556 518 OFFCURVE",
"551 515 OFFCURVE",
"547 515 CURVE SMOOTH",
"404 515 LINE SMOOTH",
"394 515 OFFCURVE",
"388 525 OFFCURVE",
"391 534 CURVE SMOOTH",
"438 663 LINE SMOOTH",
"445 681 OFFCURVE",
"435 702 OFFCURVE",
"417 708 CURVE SMOOTH",
"398 714 OFFCURVE",
"378 705 OFFCURVE",
"371 688 CURVE",
"311 522 LINE SMOOTH",
"309 518 OFFCURVE",
"304 515 OFFCURVE",
"300 515 CURVE SMOOTH",
"178 515 LINE SMOOTH",
"158 515 OFFCURVE",
"142 499 OFFCURVE",
"142 479 CURVE SMOOTH",
"142 460 OFFCURVE",
"158 444 OFFCURVE",
"178 444 CURVE SMOOTH",
"262 444 LINE SMOOTH",
"272 444 OFFCURVE",
"278 434 OFFCURVE",
"275 425 CURVE SMOOTH",
"226 289 LINE SMOOTH",
"224 285 OFFCURVE",
"219 282 OFFCURVE",
"215 282 CURVE SMOOTH",
"106 282 LINE SMOOTH",
"86 282 OFFCURVE",
"70 266 OFFCURVE",
"70 246 CURVE SMOOTH",
"70 227 OFFCURVE",
"86 211 OFFCURVE",
"106 211 CURVE SMOOTH",
"177 211 LINE SMOOTH",
"187 211 OFFCURVE",
"193 201 OFFCURVE",
"190 192 CURVE SMOOTH",
"144 65 LINE",
"136 47 OFFCURVE",
"147 25 OFFCURVE",
"166 19 CURVE SMOOTH"
);
},
{
closed = 1;
nodes = (
"309 282 OFFCURVE",
"303 292 OFFCURVE",
"306 301 CURVE SMOOTH",
"355 437 LINE SMOOTH",
"357 441 OFFCURVE",
"362 444 OFFCURVE",
"366 444 CURVE SMOOTH",
"509 444 LINE SMOOTH",
"519 444 OFFCURVE",
"525 434 OFFCURVE",
"522 425 CURVE SMOOTH",
"473 289 LINE SMOOTH",
"471 285 OFFCURVE",
"466 282 OFFCURVE",
"462 282 CURVE SMOOTH",
"319 282 LINE SMOOTH"
);
}
);
width = 826;
}
);
leftMetricsKey = "=H";
rightMetricsKey = "=H";
unicode = 0023;
},
{
glyphname = slash;
lastChange = "2020-01-20 11:49:52 +0000";
layers = (
{
backgroundImage = {
crop = "{{0, 0}, {90, 79}}";
imagePath = images/_slash.jpg;
locked = "1";
transform = "{10.81196, 0, 0, 10.81196, -138, -76}";
};
layerId = "15BDFF71-2BAF-4479-A38F-4FA7A571BE82";
paths = (
{
closed = 1;
nodes = (
"599 519 LINE",
"521 592 LINE",
"84 124 LINE",
"163 51 LINE"
);
},
{
closed = 1;
nodes = (
"108 28 OFFCURVE",
"142 29 OFFCURVE",
"163 51 CURVE SMOOTH",
"184 73 OFFCURVE",
"181 106 OFFCURVE",
"160 126 CURVE SMOOTH",
"138 147 OFFCURVE",
"104 146 OFFCURVE",
"84 124 CURVE SMOOTH",
"64 102 OFFCURVE",
"65 69 OFFCURVE",
"87 48 CURVE SMOOTH"
);
},
{
closed = 1;
nodes = (
"545 496 OFFCURVE",
"579 497 OFFCURVE",
"599 519 CURVE SMOOTH",
"619 541 OFFCURVE",
"618 575 OFFCURVE",
"597 594 CURVE SMOOTH",
"574 614 OFFCURVE",
"541 614 OFFCURVE",
"521 592 CURVE SMOOTH",
"501 569 OFFCURVE",
"502 537 OFFCURVE",
"524 516 CURVE SMOOTH"
);
}
);
width = 683;
}
);
leftMetricsKey = "=H";
rightMetricsKey = "=H";
unicode = 002F;
},
{
glyphname = backslash;
lastChange = "2020-01-20 11:40:00 +0000";
layers = (
{
layerId = "15BDFF71-2BAF-4479-A38F-4FA7A571BE82";
paths = (
{
closed = 1;
nodes = (
"599 124 LINE",
"162 592 LINE",
"84 519 LINE",
"520 51 LINE"
);
},
{
closed = 1;
nodes = (
"618 69 OFFCURVE",
"619 102 OFFCURVE",
"599 124 CURVE SMOOTH",
"579 146 OFFCURVE",
"545 147 OFFCURVE",
"523 126 CURVE SMOOTH",
"502 106 OFFCURVE",
"499 73 OFFCURVE",
"520 51 CURVE SMOOTH",
"541 29 OFFCURVE",
"575 28 OFFCURVE",
"596 48 CURVE SMOOTH"
);
},
{
closed = 1;
nodes = (
"181 537 OFFCURVE",
"182 569 OFFCURVE",
"162 592 CURVE SMOOTH",
"142 614 OFFCURVE",
"109 614 OFFCURVE",
"86 594 CURVE SMOOTH",
"65 575 OFFCURVE",
"64 541 OFFCURVE",
"84 519 CURVE SMOOTH",
"104 497 OFFCURVE",
"138 496 OFFCURVE",
"159 516 CURVE SMOOTH"
);
}
);
width = 683;
}
);
leftMetricsKey = "=H";
rightMetricsKey = "=H";
unicode = 005C;
},
{
glyphname = parenleft;
lastChange = "2020-01-20 11:40:00 +0000";
layers = (
{
backgroundImage = {
crop = "{{0, 0}, {45, 72}}";
imagePath = images/_parenthesis.jpg;
locked = "1";
transform = "{17.394, 0, 0, 17.394, -190, -336}";
};
layerId = "15BDFF71-2BAF-4479-A38F-4FA7A571BE82";
paths = (
{
closed = 1;
nodes = (
"231 -186 OFFCURVE",
"354 -140 OFFCURVE",
"295 -30 CURVE SMOOTH",
"261 34 OFFCURVE",
"217 142 OFFCURVE",
"218 297 CURVE SMOOTH",
"219 428 OFFCURVE",
"250 526 OFFCURVE",
"312 639 CURVE SMOOTH",
"356 720 OFFCURVE",
"232 771 OFFCURVE",
"175 684 CURVE SMOOTH",
"131 617 OFFCURVE",
"70 499 OFFCURVE",
"70 278 CURVE SMOOTH",
"70 81 OFFCURVE",
"131 -46 OFFCURVE",
"178 -112 CURVE SMOOTH"
);
}
);
width = 391;
}
);
leftMetricsKey = "=H";
rightMetricsKey = "=H";
unicode = 0028;
},
{
glyphname = parenright;
lastChange = "2020-01-20 11:40:00 +0000";
layers = (
{
layerId = "15BDFF71-2BAF-4479-A38F-4FA7A571BE82";
paths = (
{
closed = 1;
nodes = (
"260 -46 OFFCURVE",
"321 81 OFFCURVE",
"321 278 CURVE SMOOTH",
"321 499 OFFCURVE",
"260 617 OFFCURVE",
"216 684 CURVE SMOOTH",
"159 771 OFFCURVE",
"35 720 OFFCURVE",
"79 639 CURVE SMOOTH",
"141 526 OFFCURVE",
"172 428 OFFCURVE",
"173 297 CURVE SMOOTH",
"174 142 OFFCURVE",
"130 34 OFFCURVE",
"96 -30 CURVE SMOOTH",
"37 -140 OFFCURVE",
"160 -186 OFFCURVE",
"213 -112 CURVE SMOOTH"
);
}
);
width = 391;
}
);
leftMetricsKey = "=H";
rightMetricsKey = "=H";
unicode = 0029;
},
{
glyphname = braceleft;
lastChange = "2020-01-20 11:40:00 +0000";
layers = (
{
backgroundImage = {
crop = "{{0, 0}, {42, 66}}";
imagePath = images/_brace.jpg;
locked = "1";
transform = "{16.34582, 0, 0, 16.34582, -162, -272}";
};
layerId = "15BDFF71-2BAF-4479-A38F-4FA7A571BE82";
paths = (
{
closed = 1;
nodes = (
"386 -127 OFFCURVE",
"386 -19 OFFCURVE",
"305 -19 CURVE SMOOTH",
"254 -19 OFFCURVE",
"253 -22 OFFCURVE",
"253 130 CURVE SMOOTH",
"253 207 OFFCURVE",
"248 233 OFFCURVE",
"236 259 CURVE SMOOTH",
"231 270 OFFCURVE",
"231 280 OFFCURVE",
"235 291 CURVE SMOOTH",
"243 312 OFFCURVE",
"253 347 OFFCURVE",
"253 411 CURVE SMOOTH",
"253 567 OFFCURVE",
"233 574 OFFCURVE",
"305 574 CURVE SMOOTH",
"386 574 OFFCURVE",
"386 677 OFFCURVE",
"305 677 CURVE SMOOTH",
"243 677 OFFCURVE",
"161 664 OFFCURVE",
"153 574 CURVE SMOOTH",
"144 471 OFFCURVE",
"191 345 OFFCURVE",
"109 330 CURVE SMOOTH",
"57 321 OFFCURVE",
"56 232 OFFCURVE",
"109 222 CURVE SMOOTH",
"191 206 OFFCURVE",
"144 114 OFFCURVE",
"153 -27 CURVE SMOOTH",
"158 -111 OFFCURVE",
"197 -127 OFFCURVE",
"305 -127 CURVE SMOOTH"
);
}
);
width = 436;
}
);
leftMetricsKey = "=H";
rightMetricsKey = "=H";
unicode = 007B;
},
{
glyphname = braceright;
lastChange = "2020-01-20 11:40:00 +0000";
layers = (
{
layerId = "15BDFF71-2BAF-4479-A38F-4FA7A571BE82";
paths = (
{
closed = 1;
nodes = (
"239 -127 OFFCURVE",
"278 -111 OFFCURVE",
"283 -27 CURVE SMOOTH",
"292 114 OFFCURVE",
"245 206 OFFCURVE",
"327 222 CURVE SMOOTH",
"380 232 OFFCURVE",
"379 321 OFFCURVE",
"327 330 CURVE SMOOTH",
"245 345 OFFCURVE",
"292 471 OFFCURVE",
"283 574 CURVE SMOOTH",
"275 664 OFFCURVE",
"193 677 OFFCURVE",
"131 677 CURVE SMOOTH",
"50 677 OFFCURVE",
"50 574 OFFCURVE",
"131 574 CURVE SMOOTH",
"203 574 OFFCURVE",
"183 567 OFFCURVE",
"183 411 CURVE SMOOTH",
"183 347 OFFCURVE",
"193 312 OFFCURVE",
"201 291 CURVE SMOOTH",
"205 280 OFFCURVE",
"205 270 OFFCURVE",
"200 259 CURVE SMOOTH",
"188 233 OFFCURVE",
"183 207 OFFCURVE",
"183 130 CURVE SMOOTH",
"183 -22 OFFCURVE",
"182 -19 OFFCURVE",
"131 -19 CURVE SMOOTH",
"50 -19 OFFCURVE",
"50 -127 OFFCURVE",
"131 -127 CURVE SMOOTH"
);
}
);
width = 436;
}
);
leftMetricsKey = "=H";
rightMetricsKey = "=H";
unicode = 007D;
},
{
glyphname = bracketleft;
lastChange = "2020-01-20 11:40:00 +0000";
layers = (
{
backgroundImage = {
crop = "{{0, 0}, {47, 74}}";
imagePath = images/_bracket.jpg;
locked = "1";
transform = "{15.89285, 0, 0, 15.89285, -195, -310}";
};
layerId = "15BDFF71-2BAF-4479-A38F-4FA7A571BE82";
paths = (
{
closed = 1;
nodes = (
"300 -140 LINE SMOOTH",
"332 -140 OFFCURVE",
"358 -114 OFFCURVE",
"358 -81 CURVE SMOOTH",
"358 -49 OFFCURVE",
"332 -23 OFFCURVE",
"300 -23 CURVE SMOOTH",
"207 -23 LINE SMOOTH",
"196 -23 OFFCURVE",
"187 -14 OFFCURVE",
"187 -3 CURVE SMOOTH",
"187 557 LINE SMOOTH",
"187 568 OFFCURVE",
"196 577 OFFCURVE",
"207 577 CURVE SMOOTH",
"300 577 LINE SMOOTH",
"332 577 OFFCURVE",
"358 603 OFFCURVE",
"358 636 CURVE SMOOTH",
"358 668 OFFCURVE",
"332 694 OFFCURVE",
"300 694 CURVE SMOOTH",
"121 694 LINE SMOOTH",
"92 694 OFFCURVE",
"70 672 OFFCURVE",
"70 643 CURVE SMOOTH",
"70 -89 LINE SMOOTH",
"70 -118 OFFCURVE",
"92 -140 OFFCURVE",
"121 -140 CURVE SMOOTH"
);
}
);
width = 428;
}
);
leftMetricsKey = "=H";
rightMetricsKey = "=H";
unicode = 005B;
},
{
glyphname = bracketright;
lastChange = "2020-01-20 11:40:00 +0000";
layers = (
{
layerId = "15BDFF71-2BAF-4479-A38F-4FA7A571BE82";
paths = (
{
closed = 1;
nodes = (
"307 -140 LINE SMOOTH",
"336 -140 OFFCURVE",
"358 -118 OFFCURVE",
"358 -89 CURVE SMOOTH",
"358 643 LINE SMOOTH",
"358 672 OFFCURVE",
"336 694 OFFCURVE",
"307 694 CURVE SMOOTH",
"128 694 LINE SMOOTH",
"96 694 OFFCURVE",
"70 668 OFFCURVE",
"70 636 CURVE SMOOTH",
"70 603 OFFCURVE",
"96 577 OFFCURVE",
"128 577 CURVE SMOOTH",
"221 577 LINE SMOOTH",
"232 577 OFFCURVE",
"241 568 OFFCURVE",
"241 557 CURVE SMOOTH",
"241 -3 LINE SMOOTH",
"241 -14 OFFCURVE",
"232 -23 OFFCURVE",
"221 -23 CURVE SMOOTH",
"128 -23 LINE SMOOTH",
"96 -23 OFFCURVE",
"70 -49 OFFCURVE",
"70 -81 CURVE SMOOTH",
"70 -114 OFFCURVE",
"96 -140 OFFCURVE",
"128 -140 CURVE SMOOTH"
);
}
);
width = 428;
}
);
leftMetricsKey = "=H";
rightMetricsKey = "=H";
unicode = 005D;
},
{
glyphname = hyphen;
lastChange = "2020-01-20 11:40:00 +0000";
layers = (
{
backgroundImage = {
crop = "{{0, 0}, {98, 57}}";
imagePath = images/_hyphen.jpg;
locked = "1";
transform = "{7.06881, 0, 0, 7.06881, -146, 59}";
};
layerId = "15BDFF71-2BAF-4479-A38F-4FA7A571BE82";
paths = (
{
closed = 1;
nodes = (
"349 250 LINE",
"349 306 LINE",
"97 306 LINE",
"97 250 LINE"
);
},
{
closed = 1;
nodes = (
"113 250 OFFCURVE",
"126 263 OFFCURVE",
"126 278 CURVE SMOOTH",
"126 293 OFFCURVE",
"113 306 OFFCURVE",
"98 306 CURVE SMOOTH",
"83 306 OFFCURVE",
"70 293 OFFCURVE",
"70 278 CURVE SMOOTH",
"70 263 OFFCURVE",
"83 250 OFFCURVE",
"98 250 CURVE SMOOTH"
);
},
{
closed = 1;
nodes = (
"364 250 OFFCURVE",
"377 263 OFFCURVE",
"377 278 CURVE SMOOTH",
"377 293 OFFCURVE",
"364 306 OFFCURVE",
"349 306 CURVE SMOOTH",
"334 306 OFFCURVE",
"321 293 OFFCURVE",
"321 278 CURVE SMOOTH",
"321 263 OFFCURVE",
"334 250 OFFCURVE",
"349 250 CURVE SMOOTH"
);
}
);
width = 447;
}
);
leftMetricsKey = "=H";
rightMetricsKey = "=H";
unicode = 002D;
},
{
glyphname = underscore;
lastChange = "2020-01-20 11:40:00 +0000";
layers = (
{
backgroundImage = {
crop = "{{0, 0}, {115, 31}}";
imagePath = images/_underscore.jpg;
locked = "1";
transform = "{5.33348, 0, 0, 5.33348, -7, -176}";
};
layerId = "15BDFF71-2BAF-4479-A38F-4FA7A571BE82";
paths = (
{
closed = 1;
nodes = (
"492 -104 LINE",
"492 -60 LINE",
"91 -60 LINE",
"91 -104 LINE"
);
},
{
closed = 1;
nodes = (
"104 -104 OFFCURVE",
"114 -94 OFFCURVE",
"114 -82 CURVE SMOOTH",
"114 -70 OFFCURVE",
"104 -60 OFFCURVE",
"92 -60 CURVE SMOOTH",
"80 -60 OFFCURVE",
"70 -70 OFFCURVE",
"70 -82 CURVE SMOOTH",
"70 -94 OFFCURVE",
"80 -104 OFFCURVE",
"92 -104 CURVE SMOOTH"
);
},
{
closed = 1;
nodes = (
"504 -104 OFFCURVE",
"514 -94 OFFCURVE",
"514 -82 CURVE SMOOTH",
"514 -70 OFFCURVE",
"504 -60 OFFCURVE",
"492 -60 CURVE SMOOTH",
"480 -60 OFFCURVE",
"470 -70 OFFCURVE",
"470 -82 CURVE SMOOTH",
"470 -94 OFFCURVE",
"480 -104 OFFCURVE",
"492 -104 CURVE SMOOTH"
);
}
);
width = 584;
}
);
leftMetricsKey = "=H";
rightMetricsKey = "=H";
unicode = 005F;
},
{
glyphname = quotedbl;
lastChange = "2020-01-20 11:40:00 +0000";
layers = (
{
layerId = "15BDFF71-2BAF-4479-A38F-4FA7A571BE82";
paths = (
{
closed = 1;
nodes = (
"289 464 OFFCURVE",
"296 479 OFFCURVE",
"303 506 CURVE SMOOTH",
"314 549 OFFCURVE",
"329 613 OFFCURVE",
"329 646 CURVE SMOOTH",
"329 677 OFFCURVE",
"303 703 OFFCURVE",
"272 703 CURVE SMOOTH",
"240 703 OFFCURVE",
"214 677 OFFCURVE",
"214 646 CURVE SMOOTH",
"214 613 OFFCURVE",
"231 550 OFFCURVE",
"240 506 CURVE SMOOTH",
"246 477 OFFCURVE",
"254 464 OFFCURVE",
"272 464 CURVE SMOOTH"
);
},
{
closed = 1;
nodes = (
"145 464 OFFCURVE",
"152 479 OFFCURVE",
"159 506 CURVE SMOOTH",
"170 549 OFFCURVE",
"185 613 OFFCURVE",
"185 646 CURVE SMOOTH",
"185 677 OFFCURVE",
"159 703 OFFCURVE",
"128 703 CURVE SMOOTH",
"96 703 OFFCURVE",
"70 677 OFFCURVE",
"70 646 CURVE SMOOTH",
"70 613 OFFCURVE",
"87 550 OFFCURVE",
"96 506 CURVE SMOOTH",
"102 477 OFFCURVE",
"110 464 OFFCURVE",
"128 464 CURVE SMOOTH"
);
}
);
width = 399;
}
);
leftMetricsKey = "=H";
rightMetricsKey = "=H";
unicode = 0022;
},
{
glyphname = quotesingle;
lastChange = "2020-01-20 11:40:00 +0000";
layers = (
{
backgroundImage = {
crop = "{{0, 0}, {46, 62}}";
imagePath = images/_quotesingle.jpg;
locked = "1";
transform = "{7.10761, 0, 0, 7.10761, -36, 373}";
};
layerId = "15BDFF71-2BAF-4479-A38F-4FA7A571BE82";
paths = (
{
closed = 1;
nodes = (
"145 464 OFFCURVE",
"152 479 OFFCURVE",
"159 506 CURVE SMOOTH",
"170 549 OFFCURVE",
"185 613 OFFCURVE",
"185 646 CURVE SMOOTH",
"185 677 OFFCURVE",
"159 703 OFFCURVE",
"128 703 CURVE SMOOTH",
"96 703 OFFCURVE",
"70 677 OFFCURVE",
"70 646 CURVE SMOOTH",
"70 613 OFFCURVE",
"87 550 OFFCURVE",
"96 506 CURVE SMOOTH",
"102 477 OFFCURVE",
"110 464 OFFCURVE",
"128 464 CURVE SMOOTH"
);
}
);
width = 255;
}
);
leftMetricsKey = "=H";
rightMetricsKey = "=H";
unicode = 0027;
},
{
glyphname = at;
lastChange = "2020-01-20 11:40:00 +0000";
layers = (
{
backgroundImage = {
crop = "{{0, 0}, {64, 67}}";
imagePath = "images/_@.jpg";
locked = "1";
transform = "{16.6221, 0, 0, 16.6221, -73, -249}";
};
layerId = "15BDFF71-2BAF-4479-A38F-4FA7A571BE82";
paths = (
{
closed = 1;
nodes = (
"495 -75 OFFCURVE",
"517 -73 OFFCURVE",
"538 -70 CURVE SMOOTH",
"572 -64 OFFCURVE",
"594 -45 OFFCURVE",
"582 -23 CURVE SMOOTH",
"568 3 OFFCURVE",
"551 3 OFFCURVE",
"529 0 CURVE SMOOTH",
"511 -3 OFFCURVE",
"492 -5 OFFCURVE",
"473 -5 CURVE SMOOTH",
"290 -5 OFFCURVE",
"142 137 OFFCURVE",
"142 314 CURVE SMOOTH",
"142 490 OFFCURVE",
"290 632 OFFCURVE",
"473 632 CURVE SMOOTH",
"655 632 OFFCURVE",
"803 490 OFFCURVE",
"803 314 CURVE SMOOTH",
"803 245 OFFCURVE",
"811 137 OFFCURVE",
"714 137 CURVE SMOOTH",
"664 137 OFFCURVE",
"621 192 OFFCURVE",
"623 241 CURVE SMOOTH",
"632 448 LINE SMOOTH",
"635 506 OFFCURVE",
"603 515 OFFCURVE",
"579 515 CURVE SMOOTH",
"571 515 OFFCURVE",
"564 513 OFFCURVE",
"558 509 CURVE SMOOTH",
"545 502 OFFCURVE",
"536 499 OFFCURVE",
"522 507 CURVE SMOOTH",
"503 517 OFFCURVE",
"482 522 OFFCURVE",
"460 522 CURVE SMOOTH",
"370 522 OFFCURVE",
"298 432 OFFCURVE",
"298 321 CURVE SMOOTH",
"298 210 OFFCURVE",
"370 119 OFFCURVE",
"460 119 CURVE SMOOTH",
"479 119 OFFCURVE",
"497 123 OFFCURVE",
"514 131 CURVE SMOOTH",
"532 139 OFFCURVE",
"549 138 OFFCURVE",
"565 128 CURVE SMOOTH",
"606 101 OFFCURVE",
"679 72 OFFCURVE",
"742 72 CURVE SMOOTH",
"865 72 OFFCURVE",
"875 207 OFFCURVE",
"875 314 CURVE SMOOTH",
"875 529 OFFCURVE",
"695 702 OFFCURVE",
"473 702 CURVE SMOOTH",
"250 702 OFFCURVE",
"70 528 OFFCURVE",
"70 314 CURVE SMOOTH",
"70 99 OFFCURVE",
"250 -75 OFFCURVE",
"473 -75 CURVE SMOOTH"
);
},
{
closed = 1;
nodes = (
"406 190 OFFCURVE",
"363 247 OFFCURVE",
"363 316 CURVE SMOOTH",
"363 385 OFFCURVE",
"406 441 OFFCURVE",
"460 441 CURVE SMOOTH",
"513 441 OFFCURVE",
"557 385 OFFCURVE",
"557 316 CURVE SMOOTH",
"557 247 OFFCURVE",
"513 190 OFFCURVE",
"460 190 CURVE SMOOTH"
);
}
);
width = 945;
}
);
leftMetricsKey = "=H";
rightMetricsKey = "=H";
unicode = 0040;
},
{
glyphname = ampersand;
lastChange = "2020-01-20 11:40:00 +0000";
layers = (
{
backgroundImage = {
crop = "{{0, 0}, {63, 71}}";
imagePath = "images/_&.jpg";
locked = "1";
transform = "{13.22185, 0, 0, 13.22185, -88, -186}";
};
layerId = "15BDFF71-2BAF-4479-A38F-4FA7A571BE82";
paths = (
{
closed = 1;
nodes = (
"372 -6 OFFCURVE",
"445 42 OFFCURVE",
"481 112 CURVE SMOOTH",
"483 116 OFFCURVE",
"487 116 OFFCURVE",
"490 114 CURVE",
"574 40 LINE SMOOTH",
"602 16 OFFCURVE",
"635 12 OFFCURVE",
"652 32 CURVE SMOOTH",
"669 51 OFFCURVE",
"662 83 OFFCURVE",
"634 108 CURVE SMOOTH",
"527 203 LINE",
"525 205 OFFCURVE",
"525 206 OFFCURVE",
"526 208 CURVE SMOOTH",
"578 318 LINE SMOOTH",
"590 344 OFFCURVE",
"581 370 OFFCURVE",
"558 381 CURVE SMOOTH",
"534 392 OFFCURVE",
"508 381 OFFCURVE",
"496 357 CURVE SMOOTH",
"457 275 LINE",
"455 272 OFFCURVE",
"451 271 OFFCURVE",
"448 273 CURVE",
"334 375 LINE",
"331 378 OFFCURVE",
"331 383 OFFCURVE",
"335 385 CURVE SMOOTH",
"386 411 OFFCURVE",
"421 463 OFFCURVE",
"421 525 CURVE SMOOTH",
"421 611 OFFCURVE",
"351 681 OFFCURVE",
"265 681 CURVE SMOOTH",
"178 681 OFFCURVE",
"108 611 OFFCURVE",
"108 525 CURVE SMOOTH",
"108 478 OFFCURVE",
"128 436 OFFCURVE",
"164 405 CURVE",
"167 402 OFFCURVE",
"167 398 OFFCURVE",
"164 396 CURVE SMOOTH",
"106 357 OFFCURVE",
"70 289 OFFCURVE",
"70 212 CURVE SMOOTH",
"70 91 OFFCURVE",
"167 -6 OFFCURVE",
"288 -6 CURVE SMOOTH"
);
},
{
closed = 1;
nodes = (
"216 84 OFFCURVE",
"160 140 OFFCURVE",
"160 210 CURVE SMOOTH",
"160 265 OFFCURVE",
"194 313 OFFCURVE",
"243 331 CURVE",
"244 332 OFFCURVE",
"246 331 OFFCURVE",
"247 330 CURVE",
"409 186 LINE",
"410 185 OFFCURVE",
"411 182 OFFCURVE",
"410 180 CURVE SMOOTH",
"369 104 OFFCURVE",
"343 84 OFFCURVE",
"287 84 CURVE SMOOTH"
);
},
{
closed = 1;
nodes = (
"231 472 OFFCURVE",
"196 495 OFFCURVE",
"196 529 CURVE SMOOTH",
"196 569 OFFCURVE",
"224 591 OFFCURVE",
"265 591 CURVE SMOOTH",
"302 591 OFFCURVE",
"331 559 OFFCURVE",
"331 525 CURVE SMOOTH",
"331 495 OFFCURVE",
"296 466 OFFCURVE",
"271 444 CURVE",
"269 442 OFFCURVE",
"267 442 OFFCURVE",
"265 444 CURVE"
);
}
);
width = 731;
}
);
leftMetricsKey = "=H";
rightMetricsKey = "=H";
unicode = 0026;
},
{
glyphname = bar;
lastChange = "2020-01-20 11:40:00 +0000";
layers = (
{
backgroundImage = {
crop = "{{0, 0}, {40, 76}}";
imagePath = images/_bar.jpg;
locked = "1";
transform = "{15.57529, 0.84258, -0.84258, 15.57529, -121, -335}";
};
layerId = "15BDFF71-2BAF-4479-A38F-4FA7A571BE82";
paths = (
{
closed = 1;
nodes = (
"204 -51 LINE",
"204 627 LINE",
"70 627 LINE",
"70 -51 LINE"
);
},
{
closed = 1;
nodes = (
"174 -119 OFFCURVE",
"204 -89 OFFCURVE",
"204 -52 CURVE SMOOTH",
"204 -15 OFFCURVE",
"174 15 OFFCURVE",
"137 15 CURVE SMOOTH",
"100 15 OFFCURVE",
"70 -15 OFFCURVE",
"70 -52 CURVE SMOOTH",
"70 -89 OFFCURVE",
"100 -119 OFFCURVE",
"137 -119 CURVE SMOOTH"
);
},
{
closed = 1;
nodes = (
"174 560 OFFCURVE",
"204 590 OFFCURVE",
"204 627 CURVE SMOOTH",
"204 663 OFFCURVE",
"175 694 OFFCURVE",
"137 694 CURVE SMOOTH",
"100 694 OFFCURVE",
"70 664 OFFCURVE",
"70 627 CURVE SMOOTH",
"70 590 OFFCURVE",
"100 560 OFFCURVE",
"137 560 CURVE SMOOTH"
);
}
);
width = 274;
}
);
leftMetricsKey = "=H";
rightMetricsKey = "=H";
unicode = 007C;
},
{
glyphname = dollar;
lastChange = "2020-01-20 11:40:00 +0000";
layers = (
{
background = {
paths = (
{
closed = 1;
nodes = (
"550 535 OFFCURVE",
"519 630 OFFCURVE",
"346 630 CURVE SMOOTH",
"242 630 OFFCURVE",
"167 590 OFFCURVE",
"167 521 CURVE SMOOTH",
"167 442 OFFCURVE",
"239 414 OFFCURVE",
"346 414 CURVE SMOOTH",
"487 414 OFFCURVE",
"633 354 OFFCURVE",
"633 193 CURVE SMOOTH",
"633 40 OFFCURVE",
"481 -19 OFFCURVE",
"346 -19 CURVE SMOOTH",
"181 -19 OFFCURVE",
"9 76 OFFCURVE",
"65 131 CURVE SMOOTH",
"118 183 OFFCURVE",
"112 61 OFFCURVE",
"346 61 CURVE SMOOTH",
"443 61 OFFCURVE",
"560 87 OFFCURVE",
"557 203 CURVE SMOOTH",
"554 308 OFFCURVE",
"459 339 OFFCURVE",
"346 339 CURVE SMOOTH",
"223 339 OFFCURVE",
"91 393 OFFCURVE",
"91 525 CURVE SMOOTH",
"91 635 OFFCURVE",
"204 709 OFFCURVE",
"346 709 CURVE SMOOTH",
"467 709 OFFCURVE",
"640 644 OFFCURVE",
"593 587 CURVE SMOOTH"
);
}
);
};
backgroundImage = {
crop = "{{0, 0}, {50, 69}}";
imagePath = images/_dollar.jpg;
locked = "1";
transform = "{15.45857, 0, 0, 15.45857, -82, -169}";
};
layerId = "15BDFF71-2BAF-4479-A38F-4FA7A571BE82";
paths = (
{
closed = 1;
nodes = (
"378 -46 OFFCURVE",
"406 -18 OFFCURVE",
"406 16 CURVE SMOOTH",
"406 23 LINE SMOOTH",
"406 32 OFFCURVE",
"413 40 OFFCURVE",
"422 42 CURVE SMOOTH",
"537 64 OFFCURVE",
"610 135 OFFCURVE",
"610 232 CURVE SMOOTH",
"610 357 OFFCURVE",
"505 437 OFFCURVE",
"342 437 CURVE SMOOTH",
"252 437 OFFCURVE",
"211 458 OFFCURVE",
"211 504 CURVE SMOOTH",
"211 546 OFFCURVE",
"261 573 OFFCURVE",
"342 573 CURVE SMOOTH",
"414 573 OFFCURVE",
"454 553 OFFCURVE",
"483 539 CURVE SMOOTH",
"527 518 OFFCURVE",
"547 519 OFFCURVE",
"570 546 CURVE SMOOTH",
"612 596 OFFCURVE",
"535 655 OFFCURVE",
"423 675 CURVE SMOOTH",
"413 677 OFFCURVE",
"406 685 OFFCURVE",
"406 695 CURVE SMOOTH",
"406 702 LINE SMOOTH",
"406 736 OFFCURVE",
"378 764 OFFCURVE",
"344 764 CURVE SMOOTH",
"309 764 OFFCURVE",
"281 736 OFFCURVE",
"281 702 CURVE SMOOTH",
"281 693 LINE SMOOTH",
"281 684 OFFCURVE",
"275 676 OFFCURVE",
"265 674 CURVE SMOOTH",
"168 652 OFFCURVE",
"102 589 OFFCURVE",
"102 508 CURVE SMOOTH",
"102 402 OFFCURVE",
"198 331 OFFCURVE",
"342 331 CURVE SMOOTH",
"448 331 OFFCURVE",
"498 301 OFFCURVE",
"500 239 CURVE SMOOTH",
"502 177 OFFCURVE",
"448 144 OFFCURVE",
"342 144 CURVE SMOOTH",
"234 144 OFFCURVE",
"192 173 OFFCURVE",
"165 193 CURVE SMOOTH",
"130 219 OFFCURVE",
"111 219 OFFCURVE",
"87 196 CURVE SMOOTH",
"29 140 OFFCURVE",
"130 63 OFFCURVE",
"264 41 CURVE SMOOTH",
"274 39 OFFCURVE",
"281 31 OFFCURVE",
"281 21 CURVE SMOOTH",
"281 16 LINE SMOOTH",
"281 -18 OFFCURVE",
"309 -46 OFFCURVE",
"344 -46 CURVE SMOOTH"
);
}
);
width = 680;
}
);
leftMetricsKey = "=H";
rightMetricsKey = "=H";
unicode = 0024;
},
{
glyphname = plus;
lastChange = "2020-01-20 11:40:00 +0000";
layers = (
{
backgroundImage = {
crop = "{{0, 0}, {62, 79}}";
imagePath = images/_plus.jpg;
locked = "1";
transform = "{8.99528, 0, 0, 8.99528, 21, -69}";
};
layerId = "15BDFF71-2BAF-4479-A38F-4FA7A571BE82";
paths = (
{
closed = 1;
nodes = (
"503 257 LINE",
"503 330 LINE",
"107 330 LINE",
"107 257 LINE"
);
},
{
closed = 1;
nodes = (
"127 257 OFFCURVE",
"143 273 OFFCURVE",
"143 294 CURVE SMOOTH",
"143 314 OFFCURVE",
"127 330 OFFCURVE",
"107 330 CURVE SMOOTH",
"86 330 OFFCURVE",
"70 314 OFFCURVE",
"70 294 CURVE SMOOTH",
"70 273 OFFCURVE",
"86 257 OFFCURVE",
"107 257 CURVE SMOOTH"
);
},
{
closed = 1;
nodes = (
"325 59 OFFCURVE",
"341 75 OFFCURVE",
"341 95 CURVE SMOOTH",
"341 116 OFFCURVE",
"325 132 OFFCURVE",
"305 132 CURVE SMOOTH",
"284 132 OFFCURVE",
"268 116 OFFCURVE",
"268 95 CURVE SMOOTH",
"268 75 OFFCURVE",
"284 59 OFFCURVE",
"305 59 CURVE SMOOTH"
);
},
{
closed = 1;
nodes = (
"341 95 LINE",
"341 491 LINE",
"268 491 LINE",
"268 95 LINE"
);
},
{
closed = 1;
nodes = (
"523 257 OFFCURVE",
"539 273 OFFCURVE",
"539 294 CURVE SMOOTH",
"539 314 OFFCURVE",
"523 330 OFFCURVE",
"503 330 CURVE SMOOTH",
"482 330 OFFCURVE",
"466 314 OFFCURVE",
"466 294 CURVE SMOOTH",
"466 273 OFFCURVE",
"482 257 OFFCURVE",
"503 257 CURVE SMOOTH"
);
},
{
closed = 1;
nodes = (
"325 455 OFFCURVE",
"341 471 OFFCURVE",
"341 491 CURVE SMOOTH",
"341 512 OFFCURVE",
"325 528 OFFCURVE",
"305 528 CURVE SMOOTH",
"284 528 OFFCURVE",
"268 512 OFFCURVE",
"268 491 CURVE SMOOTH",
"268 471 OFFCURVE",
"284 455 OFFCURVE",
"305 455 CURVE SMOOTH"
);
}
);
width = 609;
}
);
leftMetricsKey = "=H";
rightMetricsKey = "=H";
unicode = 002B;
},
{
glyphname = equal;
lastChange = "2020-01-20 11:40:00 +0000";
layers = (
{
backgroundImage = {
crop = "{{0, 0}, {58, 52}}";
imagePath = images/_equal.jpg;
locked = "1";
transform = "{11.71656, 0, 0, 11.71656, -76, -9}";
};
layerId = "15BDFF71-2BAF-4479-A38F-4FA7A571BE82";
paths = (
{
closed = 1;
nodes = (
"451 344 LINE",
"451 429 LINE",
"114 429 LINE",
"114 344 LINE"
);
},
{
closed = 1;
nodes = (
"136 148 OFFCURVE",
"155 167 OFFCURVE",
"155 191 CURVE SMOOTH",
"155 214 OFFCURVE",
"136 233 OFFCURVE",
"113 233 CURVE SMOOTH",
"89 233 OFFCURVE",
"70 214 OFFCURVE",
"70 191 CURVE SMOOTH",
"70 167 OFFCURVE",
"89 148 OFFCURVE",
"113 148 CURVE SMOOTH"
);
},
{
closed = 1;
nodes = (
"451 148 LINE",
"451 233 LINE",
"114 233 LINE",
"114 148 LINE"
);
},
{
closed = 1;
nodes = (
"136 344 OFFCURVE",
"155 363 OFFCURVE",
"155 387 CURVE SMOOTH",
"155 410 OFFCURVE",
"136 429 OFFCURVE",
"113 429 CURVE SMOOTH",
"89 429 OFFCURVE",
"70 410 OFFCURVE",
"70 387 CURVE SMOOTH",
"70 363 OFFCURVE",
"89 344 OFFCURVE",
"113 344 CURVE SMOOTH"
);
},
{
closed = 1;
nodes = (
"474 148 OFFCURVE",
"493 167 OFFCURVE",
"493 191 CURVE SMOOTH",
"493 214 OFFCURVE",
"474 233 OFFCURVE",
"451 233 CURVE SMOOTH",
"427 233 OFFCURVE",
"408 214 OFFCURVE",
"408 191 CURVE SMOOTH",
"408 167 OFFCURVE",
"427 148 OFFCURVE",
"451 148 CURVE SMOOTH"
);
},
{
closed = 1;
nodes = (
"474 344 OFFCURVE",
"493 363 OFFCURVE",
"493 387 CURVE SMOOTH",
"493 410 OFFCURVE",
"474 429 OFFCURVE",
"451 429 CURVE SMOOTH",
"427 429 OFFCURVE",
"408 410 OFFCURVE",
"408 387 CURVE SMOOTH",
"408 363 OFFCURVE",
"427 344 OFFCURVE",
"451 344 CURVE SMOOTH"
);
}
);
width = 563;
}
);
leftMetricsKey = "=H";
rightMetricsKey = "=H";
unicode = 003D;
},
{
glyphname = greater;
lastChange = "2020-01-20 11:40:00 +0000";
layers = (
{
backgroundImage = {
crop = "{{0, 0}, {73, 70}}";
imagePath = "images/_>.jpg";
locked = "1";
transform = "{10.51165, 0, 0, 10.51165, -151, -80}";
};
layerId = "15BDFF71-2BAF-4479-A38F-4FA7A571BE82";
paths = (
{
closed = 1;
nodes = (
"141 6 LINE",
"474 240 LINE SMOOTH",
"481 245 OFFCURVE",
"486 251 OFFCURVE",
"489 257 CURVE SMOOTH",
"492 263 OFFCURVE",
"494 270 OFFCURVE",
"494 277 CURVE SMOOTH",
"494 283 OFFCURVE",
"492 290 OFFCURVE",
"489 296 CURVE SMOOTH",
"486 302 OFFCURVE",
"481 308 OFFCURVE",
"474 313 CURVE SMOOTH",
"141 547 LINE",
"139 548 LINE",
"119 562 OFFCURVE",
"92 557 OFFCURVE",
"78 537 CURVE SMOOTH",
"64 517 OFFCURVE",
"68 489 OFFCURVE",
"88 475 CURVE SMOOTH",
"351 290 LINE SMOOTH",
"362 282 OFFCURVE",
"362 270 OFFCURVE",
"351 262 CURVE SMOOTH",
"88 78 LINE SMOOTH",
"68 64 OFFCURVE",
"64 36 OFFCURVE",
"78 16 CURVE SMOOTH",
"92 -4 OFFCURVE",
"119 -9 OFFCURVE",
"139 5 CURVE"
);
}
);
width = 564;
}
);
leftMetricsKey = "=H";
rightMetricsKey = "=H";
unicode = 003E;
},
{
glyphname = less;
lastChange = "2020-01-20 11:40:00 +0000";
layers = (
{
layerId = "15BDFF71-2BAF-4479-A38F-4FA7A571BE82";
paths = (
{
closed = 1;
nodes = (
"445 -9 OFFCURVE",
"472 -4 OFFCURVE",
"486 16 CURVE SMOOTH",
"500 36 OFFCURVE",
"496 64 OFFCURVE",
"476 78 CURVE SMOOTH",
"213 262 LINE SMOOTH",
"202 270 OFFCURVE",
"202 282 OFFCURVE",
"213 290 CURVE SMOOTH",
"476 475 LINE SMOOTH",
"496 489 OFFCURVE",
"500 517 OFFCURVE",
"486 537 CURVE SMOOTH",
"472 557 OFFCURVE",
"445 562 OFFCURVE",
"425 548 CURVE",
"423 547 LINE",
"90 313 LINE SMOOTH",
"83 308 OFFCURVE",
"78 302 OFFCURVE",
"75 296 CURVE SMOOTH",
"72 290 OFFCURVE",
"70 283 OFFCURVE",
"70 277 CURVE SMOOTH",
"70 270 OFFCURVE",
"72 263 OFFCURVE",
"75 257 CURVE SMOOTH",
"78 251 OFFCURVE",
"83 245 OFFCURVE",
"90 240 CURVE SMOOTH",
"423 6 LINE",
"425 5 LINE"
);
}
);
width = 564;
}
);
leftMetricsKey = "=H";
rightMetricsKey = "=H";
unicode = 003C;
},
{
glyphname = asciitilde;
lastChange = "2020-01-20 11:40:00 +0000";
layers = (
{
backgroundImage = {
crop = "{{0, 0}, {101, 46}}";
imagePath = images/_tilde.jpg;
locked = "1";
transform = "{8.98886, 0, 0, 8.98886, -155, 75}";
};
layerId = "15BDFF71-2BAF-4479-A38F-4FA7A571BE82";
paths = (
{
closed = 1;
nodes = (
"481 218 OFFCURVE",
"511 254 OFFCURVE",
"532 294 CURVE SMOOTH",
"553 334 OFFCURVE",
"499 358 OFFCURVE",
"482 322 CURVE SMOOTH",
"470 297 OFFCURVE",
"444 274 OFFCURVE",
"394 274 CURVE SMOOTH",
"326 274 OFFCURVE",
"303 339 OFFCURVE",
"205 339 CURVE SMOOTH",
"131 339 OFFCURVE",
"88 304 OFFCURVE",
"73 266 CURVE SMOOTH",
"57 226 OFFCURVE",
"105 204 OFFCURVE",
"128 245 CURVE SMOOTH",
"140 266 OFFCURVE",
"162 284 OFFCURVE",
"219 284 CURVE SMOOTH",
"285 284 OFFCURVE",
"325 218 OFFCURVE",
"394 218 CURVE SMOOTH"
);
}
);
width = 607;
}
);
leftMetricsKey = "=H";
rightMetricsKey = "=H";
unicode = 007E;
},
{
glyphname = asciicircum;
lastChange = "2020-01-20 11:49:48 +0000";
layers = (
{
backgroundImage = {
crop = "{{0, 0}, {79, 64}}";
imagePath = "images/_^.jpg";
locked = "1";
transform = "{6.70048, 0, 0, 6.67202, -12, 274}";
};
layerId = "15BDFF71-2BAF-4479-A38F-4FA7A571BE82";
paths = (
{
closed = 1;
nodes = (
"97 350 OFFCURVE",
"114 354 OFFCURVE",
"122 368 CURVE SMOOTH",
"244 580 LINE SMOOTH",
"249 589 OFFCURVE",
"261 589 OFFCURVE",
"266 580 CURVE SMOOTH",
"388 368 LINE SMOOTH",
"396 354 OFFCURVE",
"413 350 OFFCURVE",
"426 358 CURVE SMOOTH",
"439 366 OFFCURVE",
"444 382 OFFCURVE",
"436 396 CURVE SMOOTH",
"280 667 OFFCURVE",
"278 669 OFFCURVE",
"276 672 CURVE SMOOTH",
"271 679 OFFCURVE",
"263 682 OFFCURVE",
"255 682 CURVE SMOOTH",
"247 682 OFFCURVE",
"239 679 OFFCURVE",
"234 672 CURVE",
"74 396 LINE SMOOTH",
"66 382 OFFCURVE",
"71 366 OFFCURVE",
"84 358 CURVE SMOOTH"
);
}
);
width = 510;
}
);
leftMetricsKey = "=H";
rightMetricsKey = "=H";
unicode = 005E;
},
{
glyphname = percent;
lastChange = "2020-01-20 11:40:00 +0000";
layers = (
{
backgroundImage = {
crop = "{{0, 0}, {84, 77}}";
imagePath = images/_percent.jpg;
locked = "1";
transform = "{12.46753, 0, 0, 12.46753, -124, -160}";
};
layerId = "15BDFF71-2BAF-4479-A38F-4FA7A571BE82";
paths = (
{
closed = 1;
nodes = (
"145 29 OFFCURVE",
"172 29 OFFCURVE",
"189 46 CURVE SMOOTH",
"680 537 LINE SMOOTH",
"697 554 OFFCURVE",
"697 581 OFFCURVE",
"680 598 CURVE SMOOTH",
"663 615 OFFCURVE",
"636 615 OFFCURVE",
"619 598 CURVE SMOOTH",
"128 107 LINE SMOOTH",
"111 90 OFFCURVE",
"111 63 OFFCURVE",
"128 46 CURVE SMOOTH"
);
},
{
closed = 1;
nodes = (
"287 375 OFFCURVE",
"350 438 OFFCURVE",
"350 515 CURVE SMOOTH",
"350 592 OFFCURVE",
"287 655 OFFCURVE",
"210 655 CURVE SMOOTH",
"133 655 OFFCURVE",
"70 592 OFFCURVE",
"70 515 CURVE SMOOTH",
"70 438 OFFCURVE",
"133 375 OFFCURVE",
"210 375 CURVE SMOOTH"
);
},
{
closed = 1;
nodes = (
"173 447 OFFCURVE",
"142 478 OFFCURVE",
"142 515 CURVE SMOOTH",
"142 552 OFFCURVE",
"173 583 OFFCURVE",
"210 583 CURVE SMOOTH",
"247 583 OFFCURVE",
"278 552 OFFCURVE",
"278 515 CURVE SMOOTH",
"278 478 OFFCURVE",
"247 447 OFFCURVE",
"210 447 CURVE SMOOTH"
);
},
{
closed = 1;
nodes = (
"688 13 OFFCURVE",
"751 76 OFFCURVE",
"751 153 CURVE SMOOTH",
"751 230 OFFCURVE",
"688 293 OFFCURVE",
"611 293 CURVE SMOOTH",
"534 293 OFFCURVE",
"471 230 OFFCURVE",
"471 153 CURVE SMOOTH",
"471 76 OFFCURVE",
"534 13 OFFCURVE",
"611 13 CURVE SMOOTH"
);
},
{
closed = 1;
nodes = (
"574 85 OFFCURVE",
"543 116 OFFCURVE",
"543 153 CURVE SMOOTH",
"543 190 OFFCURVE",
"574 221 OFFCURVE",
"611 221 CURVE SMOOTH",
"647 221 OFFCURVE",
"679 190 OFFCURVE",
"679 153 CURVE SMOOTH",
"679 116 OFFCURVE",
"648 85 OFFCURVE",
"611 85 CURVE SMOOTH"
);
}
);
width = 821;
}
);
leftMetricsKey = "=H";
rightMetricsKey = "=H";
unicode = 0025;
},
{
glyphname = grave;
lastChange = "2020-01-20 11:40:00 +0000";
layers = (
{
backgroundImage = {
crop = "{{0, 0}, {47, 57}}";
imagePath = images/_galve.jpg;
locked = "1";
transform = "{5.69005, 0, 0, 5.69005, 8, 500}";
};
layerId = "15BDFF71-2BAF-4479-A38F-4FA7A571BE82";
paths = (
{
closed = 1;
nodes = (
"193 573 OFFCURVE",
"206 582 OFFCURVE",
"202 593 CURVE SMOOTH",
"198 605 OFFCURVE",
"155 680 OFFCURVE",
"132 718 CURVE SMOOTH",
"126 727 OFFCURVE",
"115 733 OFFCURVE",
"104 733 CURVE SMOOTH",
"85 733 OFFCURVE",
"70 718 OFFCURVE",
"70 700 CURVE SMOOTH",
"70 692 OFFCURVE",
"72 685 OFFCURVE",
"77 679 CURVE SMOOTH",
"94 659 OFFCURVE",
"144 606 OFFCURVE",
"166 582 CURVE SMOOTH",
"171 577 OFFCURVE",
"176 573 OFFCURVE",
"183 573 CURVE SMOOTH"
);
}
